<svg width="40" height="40" viewBox="0 0 40 40" fill="none" xmlns="http://www.w3.org/2000/svg">
<path d="M28.333 5C28.7575 4.49839 29.2825 4.0901 29.8747 3.80114C30.4669 3.51218 31.1132 3.3489 31.7724 3.32169C32.4317 3.29449 33.0894 3.40397 33.7036 3.64315C34.3179 3.88233 34.8753 4.24596 35.3402 4.71087C35.8051 5.17578 36.1674 5.73177 36.4039 6.3434C36.6404 6.95504 36.7461 7.60889 36.714 8.2633C36.682 8.91771 36.513 9.55831 36.2178 10.1443C35.9227 10.7302 35.5078 11.2487 34.9997 11.6667L12.4997 34.1667L3.33301 36.6667L5.83301 27.5L28.333 5Z" stroke="white" stroke-width="3" stroke-linecap="round" stroke-linejoin="round"/>
<path d="M25 8.33331L31.6667 15" stroke="white" stroke-width="3" stroke-linecap="round" stroke-linejoin="round"/>
</svg>
