<svg width="46" height="46" viewBox="0 0 46 46" fill="none" xmlns="http://www.w3.org/2000/svg">
<path d="M23 3.83334V7.66668" stroke="black" stroke-width="4" stroke-linecap="round" stroke-linejoin="round"/>
<path d="M9.44922 9.44917L12.1517 12.1517" stroke="black" stroke-width="4" stroke-linecap="round" stroke-linejoin="round"/>
<path d="M38.333 23H42.1663" stroke="black" stroke-width="4" stroke-linecap="round" stroke-linejoin="round"/>
<path d="M36.5511 9.44917L33.8486 12.1517" stroke="black" stroke-width="4" stroke-linecap="round" stroke-linejoin="round"/>
<path d="M30.5652 24.2458C30.8011 22.817 30.6275 21.3505 30.0644 20.0162C29.5013 18.6819 28.5718 17.5344 27.3836 16.7066C26.1953 15.8787 24.7969 15.4043 23.3502 15.3384C21.9035 15.2724 20.4677 15.6175 19.209 16.3338" stroke="black" stroke-width="4" stroke-linecap="round" stroke-linejoin="round"/>
<path d="M24.9163 42.1667H13.4163C11.6031 42.1663 9.82721 41.6515 8.29486 40.6821C6.76252 39.7128 5.53663 38.3285 4.75958 36.6903C3.98252 35.052 3.68619 33.2269 3.905 31.4269C4.12381 29.6269 4.84877 27.9259 5.9957 26.5215C7.14263 25.1171 8.66445 24.0669 10.3844 23.4929C12.1044 22.9189 13.9519 22.8446 15.7124 23.2786C17.4729 23.7127 19.0741 24.6373 20.3301 25.9451C21.5861 27.2528 22.4454 28.8901 22.808 30.6667H24.9163C26.4413 30.6667 27.9039 31.2725 28.9822 32.3508C30.0605 33.4291 30.6663 34.8917 30.6663 36.4167C30.6663 37.9417 30.0605 39.4042 28.9822 40.4825C27.9039 41.5609 26.4413 42.1667 24.9163 42.1667Z" stroke="black" stroke-width="4" stroke-linecap="round" stroke-linejoin="round"/>
</svg>
