<svg width="24" height="24" viewBox="0 0 24 24" fill="none" xmlns="http://www.w3.org/2000/svg">
<path d="M12 20C13.6569 20 15 18.6569 15 17C15 15.3431 13.6569 14 12 14C10.3431 14 9 15.3431 9 17C9 18.6569 10.3431 20 12 20Z" stroke="#078BA8" stroke-width="2" stroke-linecap="round" stroke-linejoin="round"/>
<path d="M4.19985 15.1C3.41907 14.3631 2.81825 13.4565 2.44385 12.4503C2.06945 11.4441 1.9315 10.3653 2.04069 9.29728C2.14988 8.22925 2.50327 7.20064 3.07352 6.29102C3.64378 5.3814 4.41563 4.61513 5.32936 4.05149C6.2431 3.48785 7.27424 3.14193 8.34303 3.0405C9.41182 2.93907 10.4896 3.08483 11.4931 3.46652C12.4965 3.84821 13.3987 4.4556 14.1299 5.24171C14.8611 6.02782 15.4017 6.97158 15.7099 8H17.4999C18.4537 8.01286 19.3788 8.32852 20.1416 8.90141C20.9044 9.4743 21.4654 10.2748 21.7436 11.1873C22.0218 12.0998 22.0028 13.0771 21.6894 13.9781C21.376 14.8791 20.7843 15.6572 19.9999 16.2" stroke="#078BA8" stroke-width="2" stroke-linecap="round" stroke-linejoin="round"/>
<path d="M15.6998 18.4L14.7998 18.1" stroke="#078BA8" stroke-width="2" stroke-linecap="round" stroke-linejoin="round"/>
<path d="M9.1998 15.9L8.2998 15.6" stroke="#078BA8" stroke-width="2" stroke-linecap="round" stroke-linejoin="round"/>
<path d="M10.6001 20.7L10.9001 19.8" stroke="#078BA8" stroke-width="2" stroke-linecap="round" stroke-linejoin="round"/>
<path d="M13.1001 14.2L13.4001 13.3" stroke="#078BA8" stroke-width="2" stroke-linecap="round" stroke-linejoin="round"/>
<path d="M13.6002 20.7L13.2002 19.7" stroke="#078BA8" stroke-width="2" stroke-linecap="round" stroke-linejoin="round"/>
<path d="M10.7999 14.3L10.3999 13.3" stroke="#078BA8" stroke-width="2" stroke-linecap="round" stroke-linejoin="round"/>
<path d="M8.2998 18.6L9.2998 18.2" stroke="#078BA8" stroke-width="2" stroke-linecap="round" stroke-linejoin="round"/>
<path d="M14.7002 15.8L15.7002 15.4" stroke="#078BA8" stroke-width="2" stroke-linecap="round" stroke-linejoin="round"/>
</svg>
