<svg width="46" height="46" viewBox="0 0 46 46" fill="none" xmlns="http://www.w3.org/2000/svg">
<path d="M7.66626 28.5564C6.24225 27.1015 5.16801 25.3416 4.52491 23.41C3.8818 21.4785 3.6867 19.4259 3.95437 17.4077C4.22204 15.3896 4.94547 13.4588 6.06986 11.7617C7.19425 10.0646 8.69011 8.64554 10.4441 7.61214C12.1982 6.57874 14.1644 5.95806 16.1938 5.79711C18.2233 5.63616 20.2627 5.93915 22.1577 6.68315C24.0527 7.42715 25.7536 8.59263 27.1314 10.0913C28.5093 11.59 29.528 13.3826 30.1104 15.3333H33.5413C35.3918 15.3331 37.1934 15.9281 38.6798 17.0304C40.1663 18.1327 41.2587 19.6839 41.7959 21.4548C42.3331 23.2257 42.2864 25.1224 41.6628 26.8647C41.0392 28.6071 39.8718 30.1026 38.3329 31.1305" stroke="black" stroke-width="4" stroke-linecap="round" stroke-linejoin="round"/>
<path d="M17.6338 42.1667L23.3838 28.75" stroke="black" stroke-width="4" stroke-linecap="round" stroke-linejoin="round"/>
<path d="M17.25 24.9167L11.5 38.3333" stroke="black" stroke-width="4" stroke-linecap="round" stroke-linejoin="round"/>
<path d="M32.583 24.9167L26.833 38.3333" stroke="black" stroke-width="4" stroke-linecap="round" stroke-linejoin="round"/>
</svg>
