<svg width="46" height="46" viewBox="0 0 46 46" fill="none" xmlns="http://www.w3.org/2000/svg">
<path d="M33.5418 36.4167H17.2501C14.7621 36.416 12.3231 35.7235 10.206 34.4166C8.08879 33.1096 6.37674 31.2396 5.26115 29.0157C4.14555 26.7917 3.67036 24.3013 3.88866 21.8228C4.10697 19.3443 5.01017 16.9754 6.49735 14.9806C7.98453 12.9859 9.99708 11.444 12.3101 10.5273C14.6232 9.61051 17.1456 9.355 19.5955 9.7893C22.0454 10.2236 24.3262 11.3306 26.1832 12.9866C28.0402 14.6426 29.4001 16.7823 30.111 19.1667H33.5418C35.8293 19.1667 38.0231 20.0754 39.6406 21.6929C41.2581 23.3104 42.1668 25.5042 42.1668 27.7917C42.1668 30.0792 41.2581 32.273 39.6406 33.8905C38.0231 35.508 35.8293 36.4167 33.5418 36.4167Z" stroke="black" stroke-width="4" stroke-linecap="round" stroke-linejoin="round"/>
</svg>
