<svg width="46" height="46" viewBox="0 0 46 46" fill="none" xmlns="http://www.w3.org/2000/svg">
<path d="M33.5418 40.25H17.2501C14.7621 40.2494 12.3231 39.5569 10.206 38.2499C8.08879 36.9429 6.37674 35.073 5.26115 32.849C4.14555 30.625 3.67036 28.1347 3.88866 25.6562C4.10697 23.1777 5.01017 20.8087 6.49735 18.814C7.98453 16.8192 9.99708 15.2774 12.3101 14.3606C14.6232 13.4438 17.1456 13.1883 19.5955 13.6226C22.0454 14.0569 24.3262 15.1639 26.1832 16.8199C28.0402 18.4759 29.4001 20.6156 30.111 23H33.5418C34.6745 23 35.796 23.2231 36.8425 23.6565C37.8889 24.09 38.8397 24.7253 39.6406 25.5262C40.4415 26.3271 41.0768 27.2779 41.5103 28.3244C41.9437 29.3708 42.1668 30.4924 42.1668 31.625C42.1668 32.7577 41.9437 33.8792 41.5103 34.9256C41.0768 35.9721 40.4415 36.9229 39.6406 37.7238C38.8397 38.5247 37.8889 39.16 36.8425 39.5935C35.796 40.0269 34.6745 40.25 33.5418 40.25Z" stroke="black" stroke-width="4" stroke-linecap="round" stroke-linejoin="round"/>
<path d="M42.1671 19.1667C42.1671 17.6417 41.5613 16.1791 40.4829 15.1008C39.4046 14.0225 37.942 13.4167 36.4171 13.4167H32.187C31.5367 11.1288 30.1322 9.12792 28.2014 7.73897C26.2706 6.35003 23.9269 5.65459 21.551 5.76559C19.1752 5.8766 16.9066 6.78752 15.1137 8.35043C13.3208 9.91335 12.1089 12.0365 11.6748 14.375" stroke="black" stroke-width="4" stroke-linecap="round" stroke-linejoin="round"/>
</svg>
