<svg width="46" height="46" viewBox="0 0 46 46" fill="none" xmlns="http://www.w3.org/2000/svg">
<path d="M33.9247 14.7583C34.4857 14.2181 35.1699 13.8228 35.9181 13.6066C36.6663 13.3905 37.456 13.3599 38.2186 13.5176C38.9813 13.6754 39.6941 14.0166 40.2951 14.5118C40.8962 15.0071 41.3675 15.6413 41.6683 16.3598C41.969 17.0782 42.0901 17.8591 42.021 18.6348C41.952 19.4106 41.6949 20.1578 41.272 20.8118C40.8491 21.4658 40.2732 22.0069 39.5941 22.3881C38.915 22.7694 38.1532 22.9794 37.3747 23H3.83301" stroke="black" stroke-width="4" stroke-linecap="round" stroke-linejoin="round"/>
<path d="M18.3997 8.81666C18.8437 8.36376 19.3932 8.02812 19.9989 7.83984C20.6046 7.65155 21.2475 7.61649 21.8701 7.73782C22.4926 7.85914 23.0754 8.13305 23.566 8.53499C24.0567 8.93692 24.44 9.45433 24.6814 10.0408C24.9229 10.6273 25.0151 11.2646 24.9498 11.8955C24.8844 12.5264 24.6635 13.1312 24.3069 13.6557C23.9502 14.1802 23.469 14.6081 22.9064 14.9008C22.3437 15.1936 21.7172 15.3422 21.083 15.3333H3.83301" stroke="black" stroke-width="4" stroke-linecap="round" stroke-linejoin="round"/>
<path d="M24.1497 37.1833C24.5937 37.6362 25.1432 37.9719 25.7489 38.1602C26.3546 38.3484 26.9975 38.3835 27.6201 38.2622C28.2426 38.1409 28.8254 37.8669 29.316 37.465C29.8067 37.0631 30.19 36.5457 30.4314 35.9592C30.6729 35.3727 30.7651 34.7354 30.6998 34.1045C30.6344 33.4736 30.4135 32.8688 30.0569 32.3443C29.7002 31.8198 29.219 31.3919 28.6564 31.0992C28.0937 30.8064 27.4672 30.6578 26.833 30.6667H3.83301" stroke="black" stroke-width="4" stroke-linecap="round" stroke-linejoin="round"/>
</svg>
