<svg width="46" height="46" viewBox="0 0 46 46" fill="none" xmlns="http://www.w3.org/2000/svg">
<path d="M11.4996 31.2915C9.47986 30.3324 7.73184 28.8838 6.4144 27.0773C5.09695 25.2709 4.25186 23.1638 3.95593 20.9476C3.66 18.7314 3.92262 16.4764 4.71991 14.3875C5.5172 12.2986 6.82389 10.4421 8.52121 8.98673C10.2185 7.53134 12.2527 6.5232 14.4387 6.05394C16.6248 5.58469 18.8935 5.6692 21.0386 6.2998C23.1836 6.93039 25.1371 8.08707 26.7215 9.66471C28.3058 11.2424 29.4707 13.1909 30.1104 15.3333H33.5413C35.7483 15.3295 37.8728 16.1718 39.4775 17.687C41.0823 19.2022 42.0452 21.2749 42.1679 23.4785C42.2907 25.6821 41.5641 27.8489 40.1376 29.533C38.7112 31.217 36.6934 32.2902 34.4996 32.5316" stroke="black" stroke-width="4" stroke-linecap="round" stroke-linejoin="round"/>
<path d="M24.917 23L19.167 32.5833H26.8337L21.0837 42.1667" stroke="black" stroke-width="4" stroke-linecap="round" stroke-linejoin="round"/>
</svg>
