<svg width="52" height="47" viewBox="0 0 52 47" fill="none" xmlns="http://www.w3.org/2000/svg">
<g filter="url(#filter0_d_84_163)">
<path d="M36.5418 36.4167H20.2501C17.7621 36.416 15.3231 35.7235 13.206 34.4166C11.0888 33.1096 9.37674 31.2396 8.26115 29.0157C7.14555 26.7917 6.67036 24.3013 6.88866 21.8228C7.10697 19.3443 8.01017 16.9754 9.49735 14.9806C10.9845 12.9859 12.9971 11.444 15.3101 10.5273C17.6232 9.61051 20.1456 9.355 22.5955 9.7893C25.0454 10.2236 27.3262 11.3306 29.1832 12.9866C31.0402 14.6426 32.4001 16.7823 33.111 19.1667H36.5418C38.8293 19.1667 41.0231 20.0754 42.6406 21.6929C44.2581 23.3104 45.1668 25.5042 45.1668 27.7917C45.1668 30.0792 44.2581 32.273 42.6406 33.8905C41.0231 35.508 38.8293 36.4167 36.5418 36.4167Z" stroke="black" stroke-width="4" stroke-linecap="round" stroke-linejoin="round"/>
</g>
<defs>
<filter id="filter0_d_84_163" x="-1" y="0" width="54" height="54" filterUnits="userSpaceOnUse" color-interpolation-filters="sRGB">
<feFlood flood-opacity="0" result="BackgroundImageFix"/>
<feColorMatrix in="SourceAlpha" type="matrix" values="0 0 0 0 0 0 0 0 0 0 0 0 0 0 0 0 0 0 127 0" result="hardAlpha"/>
<feOffset dy="4"/>
<feGaussianBlur stdDeviation="2"/>
<feComposite in2="hardAlpha" operator="out"/>
<feColorMatrix type="matrix" values="0 0 0 0 0 0 0 0 0 0 0 0 0 0 0 0 0 0 0.25 0"/>
<feBlend mode="normal" in2="BackgroundImageFix" result="effect1_dropShadow_84_163"/>
<feBlend mode="normal" in="SourceGraphic" in2="effect1_dropShadow_84_163" result="shape"/>
</filter>
</defs>
</svg>
