<svg width="30" height="30" viewBox="0 0 30 30" fill="none" xmlns="http://www.w3.org/2000/svg">
<path d="M15 25C17.0711 25 18.75 23.3211 18.75 21.25C18.75 19.1789 17.0711 17.5 15 17.5C12.9289 17.5 11.25 19.1789 11.25 21.25C11.25 23.3211 12.9289 25 15 25Z" stroke="#AAAAAA" stroke-width="2" stroke-linecap="round" stroke-linejoin="round"/>
<path d="M5.25018 18.875C4.27421 17.9539 3.52317 16.8207 3.05517 15.5629C2.58717 14.3052 2.41475 12.9566 2.55123 11.6216C2.68771 10.2866 3.12945 9.0008 3.84227 7.86377C4.55509 6.72674 5.5199 5.76891 6.66207 5.06436C7.80424 4.3598 9.09316 3.92741 10.4292 3.80062C11.7651 3.67382 13.1124 3.85603 14.3667 4.33315C15.621 4.81026 16.7488 5.56949 17.6628 6.55213C18.5768 7.53476 19.2525 8.71447 19.6377 9.99999H21.8752C23.0675 10.0161 24.2239 10.4106 25.1774 11.1268C26.1309 11.8429 26.8321 12.8435 27.1799 13.9841C27.5276 15.1247 27.5039 16.3463 27.1121 17.4726C26.7203 18.5988 25.9808 19.5714 25.0002 20.25" stroke="#AAAAAA" stroke-width="2" stroke-linecap="round" stroke-linejoin="round"/>
<path d="M19.625 23L18.5 22.625" stroke="#AAAAAA" stroke-width="2" stroke-linecap="round" stroke-linejoin="round"/>
<path d="M11.5 19.875L10.375 19.5" stroke="#AAAAAA" stroke-width="2" stroke-linecap="round" stroke-linejoin="round"/>
<path d="M13.25 25.875L13.625 24.75" stroke="#AAAAAA" stroke-width="2" stroke-linecap="round" stroke-linejoin="round"/>
<path d="M16.375 17.75L16.75 16.625" stroke="#AAAAAA" stroke-width="2" stroke-linecap="round" stroke-linejoin="round"/>
<path d="M17 25.875L16.5 24.625" stroke="#AAAAAA" stroke-width="2" stroke-linecap="round" stroke-linejoin="round"/>
<path d="M13.5 17.875L13 16.625" stroke="#AAAAAA" stroke-width="2" stroke-linecap="round" stroke-linejoin="round"/>
<path d="M10.375 23.25L11.625 22.75" stroke="#AAAAAA" stroke-width="2" stroke-linecap="round" stroke-linejoin="round"/>
<path d="M18.375 19.75L19.625 19.25" stroke="#AAAAAA" stroke-width="2" stroke-linecap="round" stroke-linejoin="round"/>
</svg>
