<?xml version="1.0" encoding="utf-8"?>
<!-- Generator: Adobe Illustrator 28.2.0, SVG Export Plug-In . SVG Version: 6.00 Build 0)  -->
<svg version="1.1" id="레이어_1" xmlns="http://www.w3.org/2000/svg" xmlns:xlink="http://www.w3.org/1999/xlink" x="0px"
	 y="0px" viewBox="0 0 200 200" style="enable-background:new 0 0 200 200;" xml:space="preserve">
<style type="text/css">
	.st0{fill:#222222;}
	.st1{fill:#FFE600;}
	.st2{opacity:0.1091;fill:#050505;enable-background:new    ;}
	.st3{opacity:0.1797;fill:#FFE600;enable-background:new    ;}
</style>
<g>
	<g>
		<path class="st0" d="M56.26,146.63c0,7.83-1.75,14.63-5.25,20.4c-4.11,6.77-9.81,10.16-17.09,10.16c-1.83,0-3.98-0.42-6.42-1.25
			c-9.28-2.94-13.93-11.27-13.93-24.98c0-7.99,1.78-15.18,5.34-21.57c4.22-7.66,10.03-11.49,17.43-11.49
			c6.45,0,11.53,3.3,15.26,9.91C54.7,133.31,56.26,139.58,56.26,146.63z M51.59,145.89c0-12.32-4.1-19.87-12.31-22.64
			c-0.89-0.33-1.66-0.5-2.33-0.5c-3.55,0-7.04,1.64-10.48,4.91c-5.82,5.55-8.73,14.12-8.73,25.72c0,1.06,0.22,2.72,0.67,5
			c0.94,4.77,2.49,8.33,4.66,10.65c2.55,2.66,6.13,4,10.73,4c6.32,0,11.03-3.13,14.14-9.41C50.37,158.79,51.59,152.88,51.59,145.89z
			"/>
		<path class="st0" d="M87.69,175.27c-0.31,0.61-0.76,0.92-1.34,0.92c-0.58,0-1.52-0.39-2.83-1.17v-0.67c0-0.5,0-1.25,0-2.25
			s0-1.72,0-2.17c0-18.46-2.3-27.68-6.89-27.68c-1.44,0-2.99,1.06-4.65,3.17c-4.21,5.23-6.31,11.81-6.31,19.76
			c0,1.06,0.15,2.6,0.46,4.63s0.46,3.57,0.46,4.63c0,0.83-0.57,1.25-1.69,1.25c-2.15,0-3.23-1.75-3.23-5.25v-18.93
			c0-0.5,0.03-1.22,0.08-2.17c0.05-0.94,0.08-1.67,0.08-2.17c0-0.72-0.1-1.78-0.29-3.17c-0.2-1.39-0.29-2.42-0.29-3.09
			c0-0.44,0.35-0.96,1.04-1.54c0.69-0.58,1.24-0.88,1.63-0.88c0.72,0,1.39,0.39,2,1.17c-0.17,3.61-0.25,5.73-0.25,6.34
			c0,0.83,0.03,1.64,0.08,2.42c0.5-0.17,1.17-1.08,2-2.75c1.06-2.11,1.94-3.56,2.67-4.34c1.33-1.56,2.86-2.34,4.59-2.34
			c0.67,0,1.67,0.25,3,0.75c3,1.11,5.14,2.95,6.42,5.5c2.17,4.39,3.25,10.2,3.25,17.43L87.69,175.27L87.69,175.27z"/>
		<path class="st0" d="M115.71,143.67c0,1.72-0.18,4.29-0.54,7.71c-0.36,3.42-0.54,6.38-0.54,8.88c0,1,0.1,2.91,0.29,5.71
			c0.19,2.81,0.29,4.82,0.29,6.05c0,2.45-0.28,3.92-0.83,4.42c-0.33,0.22-0.81,0.33-1.42,0.33c-1.22,0-2.06-0.53-2.5-1.58
			c-0.22-1.06-0.45-2.08-0.67-3.09c-1.61,2.48-4.36,4.04-8.26,4.67c-1.45,0.22-3.11-0.42-5-1.93c-1.72-1.34-2.86-2.68-3.42-4.02
			c-0.78-1.84-1.17-5.39-1.17-10.64V142c-0.33-1.68,0.61-2.51,2.84-2.51c1.55,0,2.33,0.89,2.33,2.67c0,2.67-0.08,6.14-0.25,10.42
			c-0.17,5.45-0.25,8.92-0.25,10.42c-0.06,2,0.39,4,1.33,6c1.11,2.39,2.53,3.59,4.25,3.59c2.83,0,5.03-1.89,6.59-5.67
			c1.11-2.83,1.67-5.95,1.67-9.34v-10.92c0-0.44-0.15-1.07-0.46-1.88c-0.31-0.8-0.46-1.46-0.46-1.96c0-0.28,0.03-0.58,0.08-0.92
			c0.78-0.72,1.56-1.11,2.33-1.17C114.46,140.53,115.71,141.5,115.71,143.67z"/>
		<path class="st0" d="M126.96,174.02c0,1.45-0.78,2.17-2.33,2.17c-2.45,0-3.64-5.03-3.59-15.09l0.25-37.44
			c0-0.61-0.08-1.49-0.25-2.63s-0.25-1.99-0.25-2.54c1.06-0.78,1.95-1.17,2.67-1.17c0.78,0,1.56,0.28,2.33,0.83
			c0.78,0.56,1.17,1.22,1.17,2c0,0.56-0.14,1.28-0.42,2.17c-0.33,1.11-0.53,1.81-0.58,2.08c-0.67,3.78-1,9.06-1,15.84
			c0,10.95-0.03,16.23-0.08,15.84c0.17,6.84,0.61,11.98,1.33,15.43c0,0.17,0.13,0.54,0.38,1.13S126.96,173.69,126.96,174.02z"/>
		<path class="st0" d="M154.98,143.67c0,1.72-0.18,4.29-0.54,7.71c-0.36,3.42-0.54,6.38-0.54,8.88c0,1,0.1,2.91,0.29,5.71
			c0.19,2.81,0.29,4.82,0.29,6.05c0,2.45-0.28,3.92-0.83,4.42c-0.33,0.22-0.81,0.33-1.42,0.33c-1.22,0-2.06-0.53-2.5-1.58
			c-0.22-1.06-0.45-2.08-0.67-3.09c-1.61,2.48-4.36,4.04-8.26,4.67c-1.45,0.22-3.11-0.42-5-1.93c-1.72-1.34-2.86-2.68-3.42-4.02
			c-0.78-1.84-1.17-5.39-1.17-10.64V142c-0.33-1.68,0.61-2.51,2.84-2.51c1.56,0,2.33,0.89,2.33,2.67c0,2.67-0.08,6.14-0.25,10.42
			c-0.17,5.45-0.25,8.92-0.25,10.42c-0.06,2,0.39,4,1.33,6c1.11,2.39,2.53,3.59,4.25,3.59c2.84,0,5.03-1.89,6.59-5.67
			c1.11-2.83,1.67-5.95,1.67-9.34v-10.92c0-0.44-0.15-1.07-0.46-1.88c-0.31-0.8-0.46-1.46-0.46-1.96c0-0.28,0.03-0.58,0.08-0.92
			c0.78-0.72,1.55-1.11,2.33-1.17C153.73,140.53,154.98,141.5,154.98,143.67z"/>
		<path class="st0" d="M186.5,175.27c-0.31,0.61-0.76,0.92-1.34,0.92s-1.52-0.39-2.83-1.17v-0.67c0-0.5,0-1.25,0-2.25s0-1.72,0-2.17
			c0-18.46-2.3-27.68-6.89-27.68c-1.44,0-2.99,1.06-4.65,3.17c-4.21,5.23-6.31,11.81-6.31,19.76c0,1.06,0.15,2.6,0.46,4.63
			c0.31,2.03,0.46,3.57,0.46,4.63c0,0.83-0.57,1.25-1.69,1.25c-2.15,0-3.23-1.75-3.23-5.25v-18.93c0-0.5,0.03-1.22,0.08-2.17
			c0.05-0.94,0.08-1.67,0.08-2.17c0-0.72-0.1-1.78-0.29-3.17c-0.2-1.39-0.29-2.42-0.29-3.09c0-0.44,0.35-0.96,1.04-1.54
			c0.69-0.58,1.24-0.88,1.63-0.88c0.72,0,1.39,0.39,2,1.17c-0.17,3.61-0.25,5.73-0.25,6.34c0,0.83,0.03,1.64,0.08,2.42
			c0.5-0.17,1.17-1.08,2-2.75c1.06-2.11,1.94-3.56,2.67-4.34c1.33-1.56,2.86-2.34,4.59-2.34c0.67,0,1.67,0.25,3,0.75
			c3,1.11,5.14,2.95,6.42,5.5c2.17,4.39,3.25,10.2,3.25,17.43L186.5,175.27L186.5,175.27z"/>
	</g>
	<g>
		<path class="st0" d="M125.1,102.36H47.91c-4.7,0-7.04-2.02-8.18-3.72c-2.91-4.34-0.77-10.58-0.23-11.99l10.4-41.54
			c2.11-8.44,9.17-10.16,12.74-9.9c3.07,0,62.08-0.02,73.37-0.51c4.43-0.19,7.74,1.05,9.83,3.69c3.19,4.05,1.97,9.64,1.65,10.87
			l-7.62,45C138.81,102.13,126.51,102.36,125.1,102.36z M52.16,44.47L42.64,88.5c-1.19,5.95-0.12,7.78,0.85,9.21
			c0.48,0.72,1.57,1.08,3.23,1.08l75.65-0.77c3.55-0.01,10.71,0,13.09-4.76c0.03-0.03,6.18-30.85,6.18-30.85
			c0.02-0.11,2.41-17.91,0.96-20.31c-0.69-1.15-1.19-3.57-6.33-3.82c-11.66-0.57-68.63-0.94-71.01-0.94
			C65.17,37.33,55.73,34.95,52.16,44.47z"/>
		<g>
			<path class="st0" d="M67.5,45.93c-2.41,0-5.22-0.78-7.26-3.01c-2.43-2.67-2.98-6.51-1.67-9.76c0.73-1.79,2.62-4.51,5.49-5.36
				c2.75-0.81,6.22-0.43,7.47,0.64c2.05,1.74,3.24,2.93,4.47,5.98c0.37,0.91,0.76,1.91-0.21,2.1s-1.91-0.43-2.1-1.4
				c-0.59-2.96-1.85-4.93-3.73-5.86c-2.07-1.01-4.45-0.55-5.87,0.16c-1.69,0.84-2.83,2.4-3.2,4.39c-0.44,2.35,0.3,4.85,1.99,6.7
				c2.26,2.48,6.11,1.89,6.8,1.46c0.83-0.52,1.93-0.3,2.47,0.53c0.53,0.82,0.32,1.91-0.5,2.45C70.8,45.52,69.26,45.93,67.5,45.93z"
				/>
		</g>
		<path class="st0" d="M136.14,99.08c-1.01,0-2,1.86-2.55,0.93c-0.85-1.41,0.46-1.16,1.87-2c0,0,13.09-8.33,20.23-14.28
			c1.27-1.06,2.38-3.57,1.19-5.95c-0.02-0.03-4.44-10.22-4.76-10.71l-7.14-17.85c-0.53-1.56-2.75-7.8-1.19-8.33
			c1.56-0.53,1.3,0.54,1.82,2.1l14.18,34.7c0.27,0.7,1.15,3.38-0.05,6.18c-0.6,1.4-1.93,3.29-4.91,4.48l-17.17,10.3
			C137.19,98.94,136.66,99.08,136.14,99.08z"/>
		<ellipse class="st1" cx="91.38" cy="69.83" rx="21.91" ry="17.73"/>
		<g>
			<path class="st2" d="M82.83,76.29c0.54,2.48,3.51,3.48,5.7,4.19c1.44,0.46,2.78,0.42,4.25,0c2.79-0.79,4.34-2.41,5.63-4.92
				c0.18-0.34-1.69-0.92-1.96-0.46c-0.43,0.89-1.06,1.63-1.88,2.21c-1.42,1.18-2.99,1.24-4.69,0.19c-1.51-0.35-4.73-0.43-4.56-2.82
				C85.36,74.18,82.67,75.56,82.83,76.29z"/>
			<path class="st2" d="M83.25,74.89c0.24,1.34,0.75,1.94,1.98,2.71c1.29,0.8,2.82,1.72,4.3,2.04c1.43,0.31,3.11,0.01,4.45-0.5
				c2.35-0.9,3.65-2.35,4.76-4.51c0.32-0.61-1.35-0.73-1.47-0.45c-1.19,2.71-4.31,5.39-7.83,4.09c-1.61-0.6-4.64-2.17-4.64-4.12
				C84.8,73.51,83.18,74.51,83.25,74.89z"/>
			<path class="st2" d="M83.66,75.8c0.47,2.56,3.28,3.62,5.53,4.4c1.42,0.49,2.78,0.47,4.24,0.08c1.15-0.2,2.18-0.68,3.11-1.42
				c1.28-0.89,2.16-2.07,2.63-3.54c0.17-0.34-2.17-1.19-2.39-0.67c-0.28,0.96-0.85,1.73-1.69,2.33c-1.37,1.25-2.93,1.39-4.68,0.41
				c-1.53-0.27-4.83-0.23-4.8-2.65C85.62,74.11,83.58,75.37,83.66,75.8z"/>
			<path class="st2" d="M84.2,76.96c0.38,2.1,2.26,2.92,4.04,3.8c1.58,0.78,3.14,1.3,4.93,1.15c1.2-0.1,2.35-0.57,3.38-1.16
				c1.92-1.1,2.74-2.35,3.7-4.35c0.15-0.32-2.04-0.96-2.33-0.45c-1.79,3.15-4.92,4.67-8.75,3.26c-0.75-0.45-1.55-0.79-2.39-1.02
				c-0.83-0.24-1.32-0.81-1.46-1.72C85.23,75.86,84.14,76.61,84.2,76.96z"/>
			<path class="st2" d="M84.29,76.01c0.39,2.05,2.16,2.79,3.9,3.65c1.63,0.81,3.11,1.33,4.99,1.14c1.59-0.19,3.03-0.76,4.32-1.71
				c1.32-0.91,2.23-2.12,2.71-3.65c0.14-0.28-2.15-1.01-2.39-0.44c-1.26,3-4.72,4.78-7.97,3.75c-1.37-0.44-4.32-1.5-4.54-3.15
				C85.23,75.02,84.22,75.66,84.29,76.01z"/>
			<path class="st2" d="M82.11,74.72c0.33,1.58,1.22,2.36,2.62,3.19c1.28,0.77,2.77,1.67,4.24,1.95c1.58,0.3,3.32-0.09,4.79-0.65
				c0.77-0.29,1.51-0.73,2.14-1.26c1.4-1.18,1.89-2.11,2.65-3.83c0.13-0.3-0.22-0.22-0.32-0.02c-4.18,5.16-8.06,6.49-11.64,3.99
				C85.02,77.3,84,75.98,83.5,74.1C83.46,73.45,82.04,74.37,82.11,74.72z"/>
			<path class="st2" d="M82.04,76.09c0.32,1.31,1.03,1.94,2.18,2.56c1.34,0.72,2.96,1.53,4.46,1.83c1.99,0.4,3.9-0.17,5.62-1.11
				c1.82-1,2.66-2.03,3.53-3.8c0.26-0.53-0.87-0.71-1.05-0.4c-2.01,3.44-6.61,4.95-10.08,2.22c-1.09-0.86-2.26-1.21-2.11-2.91
				C84.63,73.98,81.87,75.36,82.04,76.09z"/>
			<path class="st2" d="M82.92,77.45c0.45,2.61,3.59,3.72,5.85,4.43c1.49,0.47,2.88,0.45,4.4,0.02c1.17-0.23,2.22-0.74,3.14-1.54
				c1.25-0.94,2.09-2.16,2.51-3.66c0.17-0.37-1.53-0.69-1.7-0.44c-0.52,0.91-1.22,1.67-2.1,2.26c-1.52,1.18-3.17,1.24-4.95,0.2
				c-1.38-0.29-5.01-0.36-4.95-2.72C85.13,75.48,82.8,76.76,82.92,77.45z"/>
			<path class="st2" d="M83.87,74.94c0.53,2.31,2.81,3.43,4.89,4.25c2.09,0.83,4.1,0.8,6.24,0.01c2.29-0.84,3.76-2.64,4.86-4.71
				c0.31-0.59-1.38-0.61-1.5-0.3c-3.33,4.39-6.7,5.74-10.11,4.04c-1.63-0.59-2.86-1.73-3.71-3.44
				C84.44,74.35,83.79,74.57,83.87,74.94z"/>
			<path class="st2" d="M82.13,77.07c0.31,1.36,1.03,1.97,2.19,2.66c1.34,0.79,3.09,1.57,4.63,1.84c2.03,0.36,3.89-0.2,5.61-1.21
				c1.77-1.05,2.59-2.16,3.46-3.93c0.28-0.56-1.06-0.76-1.29-0.47c-0.57,0.89-1.31,1.63-2.21,2.21c-1.57,1.16-3.24,1.19-5.02,0.07
				c-1.49-0.36-4.91-0.49-4.68-2.94c0.06-0.61-1.1,0.27-1.21,0.34C83.28,75.87,82.01,76.54,82.13,77.07z"/>
			<path class="st2" d="M83.27,74.5c0.4,1.47,1.07,2.24,2.4,3.07c2,1.26,4.42,2.27,6.83,1.97c3.22-0.39,5.55-2.5,6.95-5.26
				c0.28-0.56-0.66-0.65-0.81-0.24c-4.93,0.13-9.85,0.26-14.78,0.39C83.76,74.02,83.17,74.13,83.27,74.5z"/>
			<path class="st2" d="M81.68,75.46c0.29,1.33,0.92,1.92,2.14,2.65c1.35,0.8,3.07,1.76,4.6,2.07c1.55,0.31,3.39-0.01,4.82-0.59
				c2.65-1.06,3.75-2.51,4.89-4.91c0.14-0.3-0.21-0.21-0.32-0.02c-3.67,4.92-7.3,6.19-10.88,3.81c-1.67-0.87-2.78-2.27-3.31-4.19
				C83.62,73.72,81.54,74.84,81.68,75.46z"/>
		</g>
		<g>
			<path class="st2" d="M83.71,64.9c-0.01,1.37-0.03,2.75-0.04,4.12c-0.01,0.58,0.81-0.33,0.79-0.31c0.38-0.38,1.21-1.19,1.24-1.78
				c0.08-1.29,0.16-2.58,0.24-3.86C85.98,62.64,83.72,64.26,83.71,64.9z"/>
			<path class="st2" d="M84.14,63.66c-0.03,1.36-0.05,2.72-0.08,4.08c-0.01,0.5,1.2-0.62,1.21-0.95c0.06-1.35,0.13-2.7,0.19-4.04
				C85.49,62.21,84.15,63.22,84.14,63.66z"/>
			<path class="st2" d="M84.54,64.55c-0.02,1.36-0.04,2.73-0.07,4.09c-0.01,0.46,1.6-1.1,1.63-1.62c0.07-1.29,0.15-2.58,0.22-3.87
				C86.35,62.67,84.55,64.02,84.54,64.55z"/>
			<path class="st2" d="M85.14,65.73c-0.02,1.31-0.05,2.62-0.07,3.92c-0.01,0.83,1.07-0.36,1.09-0.73c0.05-1.34,0.11-2.68,0.16-4.02
				C86.34,64.37,85.15,65.31,85.14,65.73z"/>
			<path class="st2" d="M85.22,64.64c-0.03,1.35-0.06,2.69-0.09,4.04c-0.02,0.73,0.95-0.18,0.97-0.56c0.05-1.28,0.1-2.57,0.14-3.85
				C86.26,63.54,85.23,64.27,85.22,64.64z"/>
			<path class="st2" d="M83.01,63.52c-0.02,1.31-0.05,2.62-0.07,3.93c-0.01,0.77,1.02-0.22,1.03-0.59c0.05-1.33,0.1-2.67,0.15-4
				C84.13,62.32,83.01,63.13,83.01,63.52z"/>
			<path class="st2" d="M82.97,64.69c-0.01,1.38-0.02,2.75-0.03,4.13c0,0.42,1.96-1.39,2-2.01c0.08-1.29,0.15-2.58,0.23-3.87
				C85.19,62.49,82.98,64.07,82.97,64.69z"/>
			<path class="st2" d="M83.78,66.13c-0.01,1.38-0.02,2.76-0.03,4.14c0,0.57,0.79-0.33,0.76-0.31c0.37-0.39,1.1-1.16,1.13-1.73
				c0.08-1.29,0.16-2.57,0.24-3.86C85.92,63.94,83.78,65.5,83.78,66.13z"/>
			<path class="st2" d="M84.76,63.66c-0.04,1.38-0.07,2.76-0.11,4.14c-0.01,0.42,0.67,0.3,0.68-0.11c0.04-1.35,0.08-2.71,0.12-4.06
				C85.46,63.2,84.77,63.25,84.76,63.66z"/>
			<path class="st2" d="M83.05,65.73c-0.01,1.38-0.01,2.77-0.02,4.15c0,0.61,0.87-0.42,0.84-0.38c0.41-0.43,1.31-1.33,1.36-1.97
				c0.09-1.28,0.18-2.56,0.27-3.84c0.04-0.59-0.87,0.28-0.87,0.27C84.25,64.25,83.05,65.18,83.05,65.73z"/>
			<path class="st2" d="M84.11,63.3c0,1.39,0,2.78-0.01,4.17c0,0.3,0.59,0.49,0.59,0.09c0-1.39,0.01-2.78,0.01-4.17
				C84.7,63.07,84.11,62.9,84.11,63.3z"/>
			<path class="st2" d="M82.6,64.08c-0.02,1.37-0.04,2.74-0.06,4.11c-0.01,0.49,1.42-0.93,1.44-1.4c0.07-1.29,0.14-2.57,0.21-3.86
				C84.22,62.4,82.6,63.59,82.6,64.08z"/>
		</g>
		<g>
			<g>
				<g>
					<path class="st2" d="M95.87,64.63c-0.01,1.38-0.02,2.75-0.03,4.13c0,0.48,0.68-0.27,0.67-0.26c0.31-0.31,1.03-1,1.05-1.48
						c0.06-1.31,0.12-2.62,0.19-3.93C97.77,62.72,95.88,64.09,95.87,64.63z"/>
					<path class="st2" d="M96.23,63.58c-0.02,1.37-0.04,2.73-0.06,4.1c-0.01,0.43,1.02-0.57,1.03-0.92c0.05-1.31,0.1-2.63,0.14-3.94
						C97.36,62.36,96.23,63.22,96.23,63.58z"/>
					<path class="st2" d="M96.57,64.34c-0.02,1.37-0.04,2.74-0.05,4.11c-0.01,0.39,1.36-0.91,1.38-1.35
						c0.06-1.31,0.12-2.62,0.17-3.93C98.08,62.74,96.57,63.89,96.57,64.34z"/>
					<path class="st2" d="M97.07,65.32c-0.02,1.32-0.04,2.65-0.05,3.97c-0.01,0.69,0.91-0.28,0.92-0.59
						c0.04-1.36,0.08-2.71,0.13-4.07C98.08,64.18,97.08,64.98,97.07,65.32z"/>
					<path class="st2" d="M97.14,64.41c-0.02,1.36-0.05,2.71-0.07,4.07c-0.01,0.62,0.81-0.13,0.82-0.45
						c0.04-1.31,0.07-2.62,0.11-3.93C98.01,63.48,97.14,64.1,97.14,64.41z"/>
					<path class="st2" d="M95.28,63.47c-0.02,1.32-0.04,2.65-0.06,3.97c-0.01,0.65,0.86-0.16,0.87-0.48
						c0.04-1.35,0.07-2.7,0.11-4.06C96.21,62.45,95.28,63.14,95.28,63.47z"/>
					<path class="st2" d="M95.25,64.45c-0.01,1.38-0.02,2.76-0.03,4.14c0,0.35,1.67-1.15,1.69-1.68c0.06-1.31,0.12-2.63,0.18-3.94
						C97.11,62.59,95.25,63.93,95.25,64.45z"/>
					<path class="st2" d="M95.92,65.66c-0.01,1.38-0.02,2.76-0.02,4.14c0,0.47,0.66-0.27,0.64-0.25c0.3-0.31,0.94-0.97,0.96-1.44
						c0.06-1.31,0.13-2.62,0.19-3.93C97.72,63.81,95.93,65.14,95.92,65.66z"/>
					<path class="st2" d="M96.75,63.58c-0.03,1.38-0.06,2.76-0.09,4.14c-0.01,0.35,0.56,0.26,0.57-0.09
						c0.03-1.36,0.07-2.72,0.1-4.07C97.34,63.2,96.76,63.24,96.75,63.58z"/>
					<path class="st2" d="M95.31,65.32c-0.01,1.38-0.01,2.77-0.02,4.15c0,0.51,0.73-0.34,0.7-0.31c0.33-0.35,1.12-1.11,1.15-1.64
						c0.07-1.3,0.14-2.61,0.21-3.91c0.03-0.49-0.73,0.23-0.73,0.23C96.33,64.08,95.31,64.86,95.31,65.32z"/>
					<path class="st2" d="M96.2,63.28c0,1.39,0,2.78,0,4.16c0,0.26,0.49,0.41,0.49,0.07c0-1.39,0.01-2.78,0.01-4.17
						C96.7,63.09,96.2,62.94,96.2,63.28z"/>
					<path class="st2" d="M94.93,63.93c-0.01,1.37-0.03,2.75-0.04,4.12c0,0.41,1.21-0.76,1.23-1.16c0.05-1.31,0.11-2.62,0.16-3.93
						C96.29,62.52,94.94,63.53,94.93,63.93z"/>
				</g>
			</g>
		</g>
		<g>
			<path class="st3" d="M118.66,56.79c0.73-1.03,1.7-1.72,2.92-2.07c-0.51,0.11-1.03,0.22-1.54,0.33c0.94-0.13,1.88-0.26,2.82-0.39
				c1.33-0.18,0.12-0.59-0.54-0.64c-1.5-0.13-3.66-0.3-5.1,0.23c-2.11,0.78-3.13,1.46-4.65,3.12c-0.64,0.7,1.75,0.3,1.62,0.31
				c0.99-0.13,1.98-0.28,2.96-0.46C117.69,57.16,118.19,57.02,118.66,56.79z"/>
			<path class="st3" d="M119.15,56.02c1.4-0.68,2.8-1.37,4.21-2.05c0.93-0.18,0.52-0.51-0.08-0.61c-1.31-0.22-3.55,0.17-4.8,0.59
				c-2.23,0.74-3.52,1.51-5.16,3.28c-0.67,0.72,1.86,0.08,1.61,0.14C116.03,57.1,118.29,56.87,119.15,56.02z"/>
			<path class="st3" d="M120.75,57.19c0.97-0.66,1.94-1.32,2.9-1.99c-0.35,0.07-0.71,0.14-1.06,0.21c0.82-0.07,1.64-0.15,2.46-0.22
				c0.73-0.07,0.42-0.42,0.03-0.62c-0.74-0.38-2.71-0.38-3.51-0.19c-2.17,0.49-3.32,1.04-4.94,2.68c-0.54,0.54,1.06,0.49,1.07,0.49
				C118.39,57.55,120.21,57.73,120.75,57.19z"/>
			<path class="st3" d="M120.47,56.56c0.73-1.03,1.7-1.7,2.92-2.02c-0.48,0.11-0.97,0.22-1.45,0.33c0.91-0.11,1.82-0.22,2.73-0.33
				c0.92-0.11,0.58-0.46-0.02-0.62c-0.8-0.04-1.6-0.05-2.4-0.02c-0.8,0.01-1.6,0.06-2.39,0.15c-2.24,0.63-3.48,1.26-5.14,2.98
				c-0.64,0.67,1.67,0.32,1.53,0.33C117.22,57.27,119.71,57.31,120.47,56.56z"/>
			<path class="st3" d="M119.34,55.73c1.27-0.62,2.53-1.23,3.8-1.85c0.3-0.05,0.99-0.09,1.07-0.48s-0.42-0.38-0.66-0.36
				c-2.59,0.26-4.3,0.89-6.25,2.72C116.47,56.54,118.96,56.08,119.34,55.73z"/>
			<path class="st3" d="M119.69,57.38c0.95-0.66,1.91-1.32,2.86-1.98c-0.3,0.06-0.61,0.12-0.91,0.19c0.78-0.07,1.56-0.14,2.34-0.21
				c0.71-0.07,0.3-0.4,0.05-0.62c-0.44-0.38-2.46-0.39-3.01-0.27c-2.12,0.49-3.22,1.05-4.78,2.66c-0.48,0.5,0.83,0.51,0.9,0.52
				C117.7,57.71,119.23,57.83,119.69,57.38z"/>
			<path class="st3" d="M119.03,56.63c1.31-0.63,2.63-1.26,3.94-1.89c0.45-0.06,0.94-0.17,0.55-0.63c-0.32-0.38-1.89-0.11-2.3-0.03
				c-2.12,0.42-3.28,1.12-4.79,2.62c-0.44,0.44,0.72,0.43,0.74,0.43C117.71,57.14,118.63,57.02,119.03,56.63z"/>
		</g>
		<g>
			<path class="st3" d="M120.75,74.64c2.65,0.03,5.3,0.05,7.95,0.08c0.93,0.01-0.82-1.56-0.8-1.54c-0.74-0.76-1.51-1.49-2.29-2.21
				c-0.38-0.42-0.82-0.75-1.32-1.01c-2.61-0.11-5.23-0.22-7.84-0.34c-0.89-0.04,1.04,1.98,1.21,2.18
				C118.3,72.53,119.64,74.63,120.75,74.64z"/>
			<path class="st3" d="M120.71,73.94c2.74,0.03,5.48,0.07,8.22,0.1c0.9,0.01-0.84-1.36-0.74-1.27c-0.71-0.6-2.25-2.25-3.27-2.29
				c-2.64-0.1-5.29-0.2-7.93-0.3c-0.88-0.03,0.71,1.37,0.64,1.3C118.23,72.05,119.78,73.93,120.71,73.94z"/>
			<path class="st3" d="M122.26,75.93c2.74,0.02,5.49,0.05,8.23,0.07c0.83,0.01-0.59-1.23-0.55-1.19c-0.58-0.54-1.9-2.09-2.79-2.12
				c-2.64-0.09-5.28-0.19-7.92-0.28c-0.8-0.03,0.45,1.22,0.45,1.22C120.13,74.15,121.46,75.92,122.26,75.93z"/>
			<path class="st3" d="M122,75c2.74,0.02,5.47,0.05,8.21,0.07c0.92,0.01-0.93-1.4-0.81-1.3c-0.76-0.62-2.38-2.32-3.45-2.36
				c-2.63-0.1-5.27-0.21-7.9-0.31c-0.9-0.04,0.79,1.42,0.71,1.34C119.38,73.03,121.04,74.99,122,75z"/>
			<path class="st3" d="M121,74.6c2.65,0.02,5.31,0.05,7.96,0.07c1.07,0.01-0.37-1.43-0.85-1.44c-2.7-0.04-5.41-0.08-8.11-0.11
				C119.29,73.11,120.49,74.6,121,74.6z"/>
			<path class="st3" d="M121.22,76.02c2.72,0.02,5.45,0.03,8.17,0.05c0.78,0-0.38-1.18-0.41-1.22c-0.45-0.52-1.71-2.28-2.51-2.31
				c-2.61-0.08-5.21-0.17-7.82-0.25c-0.76-0.02,0.22,1.14,0.29,1.24C119.3,74,120.51,76.01,121.22,76.02z"/>
			<path class="st3" d="M120.44,75.26c2.71,0.02,5.42,0.04,8.13,0.06c0.7,0.01-1.23-2.48-1.91-2.5c-2.61-0.07-5.21-0.14-7.82-0.21
				C118.08,72.59,119.8,75.26,120.44,75.26z"/>
		</g>
		<g>
			<path class="st3" d="M111.92,89.3c1.27,1.2,2.71,2.14,4.31,2.83c0.31,0.17-0.09-3.73-0.08-3.6c-0.1-0.77-0.07-2.93-0.85-3.49
				c-1.12-0.95-2.23-1.91-3.35-2.86c-0.19-0.18-0.41,3.66-0.41,3.55C111.55,86.41,111.21,88.73,111.92,89.3z"/>
			<path class="st3" d="M111.95,88.26c2.39,1.95,1.6,1.41,4.24,2.88c0.69,0.39,0.32-1.26,0.3-1.4c-0.1-0.73-0.19-3.27-0.9-3.75
				c-1.3-0.76-2.45-1.7-3.45-2.83c-0.6-0.58-0.51,1.3-0.51,1.31C111.63,85.14,111.34,87.77,111.95,88.26z"/>
			<path class="st3" d="M112.82,90.6c1.28,1.2,2.72,2.14,4.33,2.84c0.68,0.37,0.21-1.18,0.2-1.22c-0.17-0.71-0.45-2.6-1.13-3.05
				c-1.36-0.74-2.57-1.69-3.62-2.83c-0.58-0.54-0.4,1.18-0.4,1.15C112.26,88.15,112.23,90.13,112.82,90.6z"/>
			<path class="st3" d="M112.78,89.47c1.26,1.2,2.69,2.16,4.29,2.87c0.73,0.4,0.14-1.38,0.14-1.38c-0.21-0.81-0.54-2.98-1.31-3.5
				c-1.32-0.76-2.49-1.7-3.5-2.84c-0.62-0.59-0.35,1.41-0.36,1.31C112.12,86.65,112.12,88.93,112.78,89.47z"/>
			<path class="st3" d="M111.31,89.25c1.25,1.19,2.67,2.14,4.25,2.84c0.69,0.38,0.43-1.85-0.01-2.12c-1.39-0.69-2.63-1.59-3.72-2.69
				C111.21,86.77,110.91,88.93,111.31,89.25z"/>
			<path class="st3" d="M111.89,90.71c2.45,1.94,1.61,1.39,4.32,2.82c0.68,0.36,0.34-1.19,0.32-1.36c-0.09-0.69-0.17-3.2-0.84-3.65
				c-1.32-0.74-2.49-1.67-3.5-2.79c-0.59-0.56-0.53,1.22-0.54,1.27C111.63,87.62,111.3,90.24,111.89,90.71z"/>
			<path class="st3" d="M111.07,89.87c2.44,1.93,1.56,1.36,4.26,2.79c0.69,0.37,0.58-3.54,0-3.92c-1.32-0.71-2.49-1.61-3.5-2.72
				C111.28,85.51,110.52,89.43,111.07,89.87z"/>
		</g>
		<g>
			<path class="st3" d="M100.15,46.27c-0.14-1.63,0.04-3.22,0.54-4.78c0.22-1.01-1.65,1.17-1.41,0.88c-0.8,0.93-2.45,2.44-2.69,3.71
				c-0.42,1.54-0.59,3.12-0.52,4.71c-0.03,0.95,1.51-0.99,1.4-0.86c0.64-0.76,1.26-1.54,1.86-2.33
				C99.69,47.2,99.97,46.76,100.15,46.27z"/>
			<path class="st3" d="M100.62,45.2c-0.14-1.64,0.04-3.23,0.54-4.8c0.23-1.04-1.69,1.37-1.42,1.02c-0.83,1.06-2.41,2.65-2.67,4.03
				c-0.43,1.56-0.61,3.14-0.53,4.75c-0.03,1,1.56-1.19,1.41-1c0.64-0.84,1.26-1.69,1.86-2.56C100.16,46.2,100.43,45.72,100.62,45.2z
				"/>
			<path class="st3" d="M101.84,46.01c-0.14-1.6,0.05-3.16,0.55-4.68c0.16-0.71-1.05,0.25-0.99,0.2c-0.52,0.41-1.49,1.19-1.64,1.88
				c-0.46,1.45-0.65,2.94-0.57,4.46C99.16,48.57,101.83,46.71,101.84,46.01z"/>
			<path class="st3" d="M101.62,45.64c-0.14-1.62,0.04-3.2,0.55-4.74c0.21-0.93-1.54,0.82-1.35,0.63c-0.74,0.72-2.41,2.01-2.64,3.09
				c-0.45,1.48-0.64,2.99-0.57,4.53c-0.03,0.86,1.36-0.59,1.35-0.57C99.53,48.06,101.61,46.52,101.62,45.64z"/>
			<path class="st3" d="M100.41,44.33c0.18-1.49,0.37-2.97,0.55-4.46c0.14-0.6-0.21-0.44-0.54-0.31c-0.49,0.2-1.22,1.84-1.33,2.34
				c-0.62,2.8-0.52,2.2-0.65,5.06c-0.03,0.73,0.97-0.53,0.9-0.44C99.76,45.97,100.39,45.06,100.41,44.33z"/>
			<path class="st3" d="M100.9,46.24c-0.14-1.58,0.04-3.13,0.54-4.64c0.15-0.67-0.97,0.24-0.91,0.19c-0.49,0.42-1.18,1.12-1.32,1.77
				c-0.44,1.45-0.62,2.94-0.53,4.46C98.65,48.69,100.89,46.91,100.9,46.24z"/>
			<path class="st3" d="M100.14,45.49c0.17-1.47,0.35-2.94,0.52-4.4c0.12-0.55-0.2-0.42-0.52-0.33c-0.42,0.11-1.21,1.62-1.3,2.02
				c-0.58,2.74-0.48,2.06-0.57,4.85c-0.02,0.66,0.88-0.31,0.86-0.29C99.52,46.89,100.13,46.11,100.14,45.49z"/>
		</g>
		<g>
			<path class="st3" d="M75.34,54.07c1.02,1.04,2.05,2.08,3.07,3.11c0.67,0.68,0.48-1.82,0.48-1.76c-0.02-1.12-0.07-2.23-0.15-3.34
				c0.01-0.59-0.08-1.17-0.27-1.73c-0.91-1.07-1.83-2.14-2.74-3.21c-0.58-0.68-0.63,2.28-0.64,2.53
				C75.05,50.68,74.53,53.24,75.34,54.07z"/>
			<path class="st3" d="M75.38,53.03c1.07,1.1,2.14,2.2,3.21,3.31c0.61,0.63,0.43-1.45,0.44-1.36c-0.04-0.9,0.12-3.09-0.52-3.84
				c-0.93-1.07-1.86-2.13-2.78-3.2c-0.56-0.64-0.55,1.35-0.55,1.3C75.14,49.97,74.78,52.41,75.38,53.03z"/>
			<path class="st3" d="M76.23,55.37c1.08,1.09,2.16,2.18,3.24,3.27c0.59,0.59,0.3-1.33,0.32-1.19c-0.13-0.87-0.22-2.4-0.84-3.1
				c-0.95-1.07-1.89-2.14-2.84-3.22c-0.54-0.61-0.42,1.24-0.43,1.13C75.72,52.99,75.65,54.79,76.23,55.37z"/>
			<path class="st3" d="M76.19,54.22c1.08,1.09,2.15,2.19,3.23,3.28c0.63,0.64,0.24-1.55,0.28-1.35c-0.16-0.98-0.27-2.77-0.96-3.57
				c-0.93-1.07-1.87-2.14-2.8-3.21c-0.58-0.66-0.38,1.46-0.39,1.29C75.61,51.5,75.55,53.57,76.19,54.22z"/>
			<path class="st3" d="M74.7,54.01c1.05,1.08,2.11,2.16,3.16,3.24c0.49,0.5,0.61-1.78,0.23-2.18c-0.94-1.01-1.88-2.02-2.83-3.03
				C74.75,51.48,74.33,53.63,74.7,54.01z"/>
			<path class="st3" d="M75.3,55.47c1.08,1.09,2.16,2.18,3.24,3.26c0.6,0.61,0.43-1.4,0.44-1.33c-0.04-0.88,0.11-3.01-0.52-3.74
				c-0.92-1.05-1.84-2.11-2.76-3.16c-0.55-0.63-0.57,1.3-0.56,1.26C75.09,52.47,74.72,54.89,75.3,55.47z"/>
			<path class="st3" d="M74.48,54.63c1.07,1.07,2.13,2.15,3.2,3.22c0.52,0.52,0.55-0.95,0.56-1.02c0.04-0.65,0.32-2.44-0.18-2.99
				c-0.91-1.02-1.82-2.04-2.73-3.06C74.89,50.27,73.93,54.08,74.48,54.63z"/>
		</g>
		<g>
			<path class="st3" d="M64.54,63.69c2.36-0.39,4.57,0.1,6.65,1.47c0.94,0.48-1.16-1.88-0.81-1.52c-0.94-0.96-2.29-2.69-3.61-3.14
				c-2.59-0.89-4.3-1.13-7.04-0.97c-0.94,0.05,1,1.48,0.94,1.43c0.81,0.66,1.63,1.29,2.47,1.91C63.56,63.22,64.03,63.5,64.54,63.69z
				"/>
			<path class="st3" d="M64.79,63.02c2.19-0.38,4.26,0.05,6.2,1.29c1.04,0.52,0.47-0.37,0.03-0.79c-0.98-0.94-2.33-2.08-3.62-2.54
				c-2.45-0.89-4.39-1.16-7.05-1.01c-0.92,0.05,1.06,1.28,0.89,1.18C62.08,61.68,63.73,63.06,64.79,63.02z"/>
			<path class="st3" d="M66.45,64.89c2.19-0.38,4.25,0.08,6.16,1.37c0.67,0.36,0.64,0.01,0.4-0.47c-0.39-0.8-2.11-2.15-2.92-2.5
				c-2.54-1.1-4.33-1.51-7.17-1.43c-0.83,0.03,0.69,1.2,0.63,1.14C64.16,63.5,65.57,64.92,66.45,64.89z"/>
			<path class="st3" d="M66.15,63.99c2.17-0.38,4.21,0.06,6.11,1.32c0.76,0.39,0.75,0.03,0.37-0.5c-0.58-0.52-1.18-1-1.8-1.46
				c-0.61-0.47-1.25-0.92-1.9-1.33c-2.62-1.04-4.5-1.44-7.39-1.32c-0.94,0.04,1.1,1.34,0.93,1.23
				C63.31,62.5,65.06,64.03,66.15,63.99z"/>
			<path class="st3" d="M65.02,63.51c2.2-0.33,4.26,0.15,6.17,1.43c0.34,0.18,0.66,0.22,0.69-0.25c0.02-0.4-0.95-0.9-1.23-1.04
				c-2.28-1.12-3.94-1.5-6.55-1.46C63.07,62.21,64.52,63.52,65.02,63.51z"/>
			<path class="st3" d="M65.37,64.96c2.19-0.38,4.25,0.07,6.18,1.34c0.83,0.44,0.57-0.22,0.2-0.73c-0.63-0.86-1.69-2.16-2.7-2.57
				c-2.47-1.02-4.01-1.3-6.68-1.19c-0.77,0.03,0.43,1.12,0.46,1.15C63.3,63.43,64.6,64.99,65.37,64.96z"/>
			<path class="st3" d="M64.61,64.23c2.07,0.47,4.14,0.94,6.21,1.41c0.51,0.27,0.48-0.08,0.45-0.43c-0.04-0.46-1.35-1.67-1.76-1.85
				c-2.43-1.07-4.12-1.43-6.85-1.33C61.98,62.05,63.95,64.25,64.61,64.23z"/>
		</g>
		<g>
			<path class="st3" d="M60.65,70.89c-1.61,0.25-2.49,0.31-4.01,0.91c-1.47,0.58-2.86,1.28-4.37,1.79c-0.88,0.29,1.3,1.24,1.29,1.24
				c0.97,0.5,1.96,0.97,2.96,1.43c0.51,0.28,1.05,0.47,1.62,0.57c2.65-0.67,5.01-1.47,7.83-1.72c0.89-0.08-1.47-1.8-1.66-1.94
				C63.51,72.54,61.78,70.72,60.65,70.89z"/>
			<path class="st3" d="M60.69,69.98c-1.67,0.27-3.22,0.57-4.78,1.27c-1.28,0.57-2.49,1.1-3.82,1.55c-0.32,0.11,2.75,2.17,2.64,2.1
				c0.65,0.41,2.15,1.67,3.05,1.44c2.68-0.69,5.06-1.49,7.84-1.74c0.31-0.03-2.29-2.68-2.2-2.6C62.94,71.56,61.56,69.85,60.69,69.98
				z"/>
			<path class="st3" d="M61.05,70.69c-3.12,0.52-5.71,1.82-8.66,2.83c-0.67,0.23,1.32,1.35,1.84,1.17c2.8-0.91,5.24-1.98,8.18-2.44
				C63.16,72.14,61.58,70.61,61.05,70.69z"/>
			<path class="st3" d="M61.6,70.51c-3.15,0.5-5.55,1.75-8.54,2.75c-0.68,0.23,0.5,0.9,0.59,0.96c0.48,0.33,1.96,1.42,2.61,1.24
				c2.7-0.78,5.08-1.68,7.89-2.01C64.84,73.37,62.34,70.39,61.6,70.51z"/>
			<path class="st3" d="M59.61,69.15c-1.75,0.29-2.53,0.36-4.13,0.98c-1.55,0.59-2.96,1.35-4.53,1.89c-0.71,0.24,0.6,0.96,0.69,1.01
				c0.54,0.34,2.18,1.6,2.89,1.39c2.78-0.81,5.22-1.78,8.12-2.14c0.74-0.09-0.4-1.07-0.47-1.14C61.77,70.74,60.3,69.04,59.61,69.15z
				"/>
			<path class="st3" d="M60.4,71.08c-3.1,0.51-5.67,1.82-8.61,2.83c-0.67,0.23,0.63,0.8,0.62,0.8c0.57,0.27,1.76,0.83,2.41,0.63
				c2.75-0.85,5.16-1.85,8.04-2.25c0.67-0.09-0.35-0.87-0.38-0.9C62.07,71.84,61.01,70.98,60.4,71.08z"/>
			<path class="st3" d="M59.54,70.35c-3.12,0.51-5.7,1.83-8.65,2.84c-0.77,0.26,0.91,0.96,0.88,0.95c0.71,0.33,2.42,1.35,3.26,1.1
				c2.75-0.81,5.15-1.77,8.02-2.13c0.79-0.1-0.66-1.1-0.64-1.09C61.85,71.61,60.32,70.22,59.54,70.35z"/>
		</g>
		<g>
			<path class="st3" d="M65.64,87.16c-1.44,2.44-3.29,4.51-5.56,6.2c-0.81,0.73,2.25-0.03,1.85,0.06c1.1-0.27,2.19-0.58,3.28-0.9
				c0.59-0.13,1.14-0.34,1.65-0.65c2.2-1.77,4.04-3.86,5.52-6.26c0.6-0.81-2.01-0.01-1.84-0.05c-1.09,0.28-2.18,0.59-3.26,0.93
				C66.7,86.62,66.15,86.85,65.64,87.16z"/>
			<path class="st3" d="M65.93,86.42c-1.44,2.43-3.3,4.49-5.57,6.18c-0.72,0.65,1.79,0.27,1.55,0.3c1.02-0.13,3.41-0.14,4.22-0.91
				c2.18-1.74,4.01-3.8,5.48-6.18c0.52-0.7-1.53-0.3-1.52-0.3C69.28,85.61,66.48,85.67,65.93,86.42z"/>
			<path class="st3" d="M65.8,87.93c-1.41,2.34-3.21,4.31-5.41,5.93c-0.39,0.35-0.04,0.47,0.24,0.57c0.39,0.14,1.72-0.59,2.01-0.85
				c2.24-1.71,4.11-3.76,5.6-6.15C68.99,86.44,66.18,87.42,65.8,87.93z"/>
			<path class="st3" d="M66.34,87.12c-1.42,2.41-3.25,4.45-5.49,6.13c-0.6,0.54,1.3,0.19,1.09,0.24c0.81-0.17,2.03-0.44,2.66-1.03
				c2.18-1.71,3.99-3.75,5.44-6.12c0.45-0.61-1.15-0.23-1.08-0.24C68.29,86.23,66.79,86.52,66.34,87.12z"/>
			<path class="st3" d="M64.31,86.34c-1.43,2.42-3.27,4.46-5.53,6.12c-0.56,0.51,1.09,0.41,1,0.41c0.69-0.03,2.11-0.07,2.67-0.58
				c2.19-1.68,4.01-3.69,5.46-6.03c0.42-0.55-0.87-0.44-0.97-0.44C66.4,85.83,64.68,85.83,64.31,86.34z"/>
			<path class="st3" d="M65.08,88.11c-1.83,2.05-3.66,4.09-5.5,6.14c-0.62,0.57,1.46,0.03,1.2,0.12c0.93-0.31,2.1-0.65,2.83-1.34
				c2.21-1.72,4.05-3.78,5.52-6.16c0.5-0.67-1.36-0.06-1.2-0.11C67.14,87.02,65.61,87.39,65.08,88.11z"/>
			<path class="st3" d="M64.19,87.38c-1.42,2.43-3.27,4.48-5.52,6.15c-0.68,0.62,1.64,0.15,1.36,0.21c0.99-0.21,2.74-0.4,3.52-1.13
				c2.2-1.71,4.03-3.75,5.5-6.11c0.51-0.68-1.43-0.2-1.35-0.22C66.9,86.44,64.72,86.65,64.19,87.38z"/>
		</g>
		<g>
			<path class="st3" d="M87.03,92.88c-0.1,2.51,0.36,3.67,1.63,5.86c0.24,0.42,2.74-2.53,2.69-2.47c0.31-0.35,2.39-2.23,2.1-2.98
				c-0.75-1.34-0.83-2.78-0.23-4.31c0.05-0.23-3.39,1.67-3.31,1.62C89.41,90.92,87.06,92.01,87.03,92.88z"/>
			<path class="st3" d="M87.37,92.07c-0.11,2.48,0.33,3.62,1.59,5.78c0.09,0.16,4.32-3.07,3.91-4.06c-0.8-1.35-0.92-2.8-0.36-4.37
				c0.08-0.37-2.87,1.04-2.75,0.98C89.31,90.63,87.41,91.32,87.37,92.07z"/>
			<path class="st3" d="M87.38,93.64c-0.12,2.52,0.39,3.81,1.6,5.92c0.41,0.72,2.05-2.15,1.78-2.68c-0.94-1.89-1.14-2.83-0.88-4.91
				c0.08-0.64-0.88,0.04-0.94,0.08C88.54,92.31,87.4,93.08,87.38,93.64z"/>
			<path class="st3" d="M87.83,92.68c-0.14,2.49,0.36,3.84,1.61,5.99c0.2,0.35,1.11-1.08,1.19-1.2c0.26-0.39,1.39-1.74,1.16-2.25
				c-0.92-1.48-1.12-3.01-0.61-4.57c0.13-0.73-1.09,0.12-1.13,0.15C89.61,91.06,87.86,92.05,87.83,92.68z"/>
			<path class="st3" d="M85.91,92.04c-0.15,2.53,0.28,3.83,1.61,6.11c0.23,0.4,2.31-1.59,2.13-2.02c-0.21-1.67-0.42-3.35-0.63-5.02
				C89.16,90.27,85.94,91.48,85.91,92.04z"/>
			<path class="st3" d="M86.62,93.78c-0.12,2.52,0.36,3.88,1.69,6.13c0.25,0.42,1.71-1.9,1.67-1.84c0.31-0.47,1.3-1.6,1.01-2.27
				c-0.19-1.51-0.38-3.01-0.57-4.52c0.13-0.79-1.25,0.27-1.25,0.27C88.67,91.91,86.65,93.06,86.62,93.78z"/>
			<path class="st3" d="M85.72,93.26c-0.09,2.54,0.4,3.69,1.73,5.88c0.12,0.2,3.63-2.77,3.24-3.7c-0.83-1.37-1.01-2.86-0.55-4.47
				c0.15-0.82-1.67,0.3-1.87,0.41C87.68,91.7,85.75,92.43,85.72,93.26z"/>
		</g>
		<g>
			<path class="st0" d="M89.05,46.29c-2.41,0-5.22-0.78-7.26-3.01c-2.43-2.67-2.98-6.51-1.67-9.76c0.73-1.79,2.62-4.51,5.49-5.36
				c2.75-0.81,6.22-0.43,7.47,0.64c2.05,1.74,3.24,2.93,4.47,5.98c0.37,0.91,0.76,1.91-0.21,2.1s-1.91-0.43-2.1-1.4
				c-0.59-2.96-1.85-4.93-3.73-5.86c-2.07-1.01-4.45-0.55-5.87,0.16c-1.69,0.84-2.83,2.4-3.2,4.39c-0.44,2.35,0.3,4.85,1.99,6.7
				c2.26,2.48,6.11,1.89,6.8,1.46c0.83-0.52,1.93-0.3,2.47,0.53c0.53,0.82,0.32,1.91-0.5,2.45C92.35,45.87,90.81,46.29,89.05,46.29z
				"/>
		</g>
		<g>
			<path class="st0" d="M110.41,46.11c-2.41,0-5.22-0.78-7.26-3.01c-2.43-2.67-2.98-6.51-1.67-9.76c0.73-1.79,2.62-4.51,5.49-5.36
				c2.75-0.81,6.22-0.43,7.47,0.64c2.05,1.74,3.24,2.93,4.47,5.98c0.37,0.91,0.76,1.91-0.21,2.1s-1.91-0.43-2.1-1.4
				c-0.59-2.96-1.85-4.93-3.73-5.86c-2.07-1.01-4.45-0.55-5.87,0.16c-1.69,0.84-2.83,2.4-3.2,4.39c-0.44,2.35,0.3,4.85,1.99,6.7
				c2.26,2.48,6.11,1.89,6.8,1.46c0.83-0.52,1.93-0.3,2.47,0.53c0.53,0.82,0.32,1.91-0.5,2.45C113.7,45.7,112.16,46.11,110.41,46.11
				z"/>
		</g>
		<g>
			<path class="st0" d="M131.96,46.47c-2.41,0-5.22-0.78-7.26-3.01c-2.43-2.67-2.98-6.51-1.67-9.76c0.73-1.79,2.62-4.51,5.49-5.36
				c2.75-0.81,6.22-0.43,7.47,0.64c2.05,1.74,3.24,2.93,4.47,5.98c0.37,0.91,0.76,1.91-0.21,2.1s-1.91-0.43-2.1-1.4
				c-0.59-2.96-1.85-4.93-3.73-5.86c-2.07-1.01-4.45-0.55-5.87,0.16c-1.69,0.84-2.83,2.4-3.2,4.39c-0.44,2.35,0.3,4.85,1.99,6.7
				c2.26,2.48,6.11,1.89,6.8,1.46c0.83-0.52,1.93-0.3,2.47,0.53c0.53,0.82,0.32,1.91-0.5,2.45
				C135.25,46.05,133.71,46.47,131.96,46.47z"/>
		</g>
	</g>
</g>
</svg>
