<?xml version="1.0" encoding="utf-8"?>
<!-- Generator: Adobe Illustrator 28.2.0, SVG Export Plug-In . SVG Version: 6.00 Build 0)  -->
<svg version="1.1" id="레이어_1" xmlns="http://www.w3.org/2000/svg" xmlns:xlink="http://www.w3.org/1999/xlink" x="0px"
	 y="0px" viewBox="0 0 160 100" style="enable-background:new 0 0 160 100;" xml:space="preserve">
<style type="text/css">
	.st0{fill:#222222;}
	.st1{fill:#FFE600;}
	.st2{opacity:0.1091;fill:#050505;}
	.st3{opacity:0.1797;fill:#FFE600;}
</style>
<g>
	<g>
		<path class="st0" d="M110.8,93.84H18.38c-5.62,0-8.43-2.42-9.79-4.46c-3.48-5.2-0.92-12.67-0.27-14.35l12.43-49.72
			c2.53-10.1,10.98-12.17,15.25-11.86c3.68,0,74.33-0.02,87.84-0.61c5.31-0.23,9.27,1.25,11.77,4.42
			c3.82,4.85,2.36,11.55,1.97,13.01l-9.12,53.88C127.21,93.57,112.48,93.84,110.8,93.84z M23.47,24.54l-11.4,52.71
			c-1.42,7.12-0.14,9.31,1.02,11.03c0.58,0.86,1.88,1.29,3.87,1.29l90.57-0.92c4.25-0.01,12.82,0,15.67-5.7
			c0.04-0.04,7.4-36.94,7.4-36.94c0.02-0.13,2.88-21.44,1.15-24.32c-0.83-1.37-1.42-4.27-7.58-4.58
			c-13.96-0.69-82.17-1.12-85.02-1.12C39.04,15.99,27.74,13.14,23.47,24.54z"/>
		<g>
			<path class="st0" d="M41.83,26.29c-2.88,0-6.25-0.93-8.69-3.61c-2.91-3.2-3.57-7.8-2-11.68c0.87-2.14,3.13-5.4,6.57-6.41
				c3.29-0.97,7.44-0.52,8.95,0.76c2.45,2.08,3.87,3.51,5.36,7.16c0.44,1.09,0.91,2.28-0.25,2.51c-1.17,0.23-2.28-0.52-2.51-1.68
				c-0.71-3.54-2.21-5.9-4.47-7.01c-2.47-1.21-5.33-0.65-7.03,0.19c-2.03,1.01-3.38,2.87-3.83,5.25c-0.53,2.81,0.36,5.81,2.38,8.02
				c2.71,2.97,7.32,2.27,8.14,1.75c0.99-0.63,2.32-0.35,2.96,0.63c0.64,0.98,0.38,2.29-0.6,2.93C45.78,25.8,43.94,26.29,41.83,26.29
				z"/>
		</g>
		<path class="st0" d="M124.01,89.92c-1.21,0-2.39,2.23-3.06,1.12c-1.01-1.69,0.56-1.38,2.24-2.4c0,0,15.67-9.97,24.22-17.1
			c1.52-1.27,2.85-4.27,1.42-7.12c-0.02-0.04-5.32-12.24-5.7-12.82l-8.55-21.37c-0.63-1.86-3.29-9.34-1.42-9.97
			c1.87-0.63,1.55,0.65,2.18,2.51l16.97,41.54c0.32,0.83,1.37,4.05-0.06,7.4c-0.71,1.67-2.31,3.94-5.88,5.37l-20.56,12.33
			C125.26,89.76,124.63,89.92,124.01,89.92z"/>
		<ellipse class="st1" cx="70.42" cy="54.9" rx="26.23" ry="21.23"/>
		<g>
			<path class="st2" d="M60.18,62.64c0.65,2.97,4.2,4.17,6.83,5.02c1.72,0.56,3.33,0.5,5.09,0c3.34-0.94,5.19-2.89,6.74-5.9
				c0.21-0.41-2.02-1.11-2.35-0.55c-0.52,1.07-1.27,1.95-2.25,2.65c-1.71,1.42-3.58,1.49-5.61,0.22c-1.8-0.41-5.67-0.51-5.46-3.38
				C63.21,60.12,59.99,61.76,60.18,62.64z"/>
			<path class="st2" d="M60.69,60.97c0.29,1.61,0.9,2.32,2.37,3.24c1.54,0.96,3.38,2.05,5.15,2.44c1.71,0.38,3.72,0.02,5.33-0.6
				c2.82-1.08,4.36-2.81,5.7-5.4c0.38-0.73-1.61-0.88-1.76-0.54c-1.42,3.25-5.15,6.45-9.37,4.9c-1.93-0.71-5.55-2.6-5.56-4.94
				C62.54,59.31,60.61,60.51,60.69,60.97z"/>
			<path class="st2" d="M61.18,62.05c0.56,3.07,3.93,4.33,6.62,5.27c1.71,0.59,3.32,0.56,5.08,0.1c1.37-0.24,2.61-0.81,3.72-1.7
				c1.53-1.06,2.58-2.47,3.14-4.24c0.2-0.4-2.6-1.43-2.86-0.8c-0.34,1.15-1.01,2.08-2.02,2.79c-1.64,1.5-3.51,1.66-5.61,0.49
				c-1.83-0.33-5.79-0.28-5.74-3.17C63.53,60.02,61.09,61.54,61.18,62.05z"/>
			<path class="st2" d="M61.83,63.44c0.46,2.51,2.71,3.5,4.84,4.55c1.89,0.93,3.76,1.56,5.9,1.38c1.44-0.12,2.82-0.69,4.05-1.39
				c2.3-1.31,3.28-2.82,4.43-5.21c0.18-0.38-2.44-1.14-2.79-0.54c-2.14,3.77-5.89,5.59-10.47,3.9c-0.9-0.53-1.85-0.94-2.86-1.22
				c-1-0.29-1.58-0.97-1.75-2.06C63.06,62.12,61.75,63.02,61.83,63.44z"/>
			<path class="st2" d="M61.93,62.3c0.46,2.45,2.59,3.34,4.67,4.37c1.96,0.96,3.72,1.59,5.98,1.36c1.9-0.22,3.63-0.91,5.17-2.04
				c1.59-1.09,2.67-2.54,3.25-4.37c0.17-0.34-2.58-1.21-2.86-0.53c-1.51,3.59-5.65,5.73-9.54,4.49c-1.64-0.52-5.17-1.8-5.44-3.77
				C63.06,61.12,61.85,61.88,61.93,62.3z"/>
			<path class="st2" d="M59.32,60.76c0.39,1.89,1.47,2.82,3.13,3.82c1.54,0.92,3.32,1.99,5.08,2.33c1.89,0.36,3.98-0.11,5.74-0.78
				c0.92-0.35,1.81-0.88,2.56-1.51c1.68-1.41,2.27-2.53,3.18-4.58c0.16-0.36-0.26-0.27-0.39-0.03c-5,6.18-9.65,7.77-13.94,4.78
				c-1.86-0.94-3.09-2.53-3.69-4.77C60.94,59.24,59.23,60.34,59.32,60.76z"/>
			<path class="st2" d="M59.24,62.4c0.38,1.56,1.23,2.32,2.61,3.06c1.6,0.86,3.55,1.83,5.33,2.19c2.38,0.47,4.67-0.2,6.73-1.32
				c2.18-1.2,3.18-2.43,4.23-4.56c0.31-0.64-1.04-0.85-1.26-0.48c-2.4,4.12-7.91,5.93-12.07,2.66c-1.31-1.03-2.71-1.45-2.53-3.48
				C62.34,59.87,59.03,61.53,59.24,62.4z"/>
			<path class="st2" d="M60.29,64.02c0.54,3.12,4.3,4.45,7,5.31c1.78,0.56,3.44,0.54,5.26,0.02c1.4-0.28,2.66-0.89,3.76-1.84
				c1.5-1.12,2.5-2.58,3-4.38c0.2-0.44-1.83-0.83-2.03-0.53c-0.62,1.09-1.46,2-2.51,2.71c-1.82,1.41-3.79,1.49-5.93,0.24
				c-1.65-0.35-6-0.43-5.92-3.26C62.94,61.67,60.15,63.21,60.29,64.02z"/>
			<path class="st2" d="M61.43,61.02c0.64,2.77,3.37,4.1,5.85,5.09c2.5,1,4.91,0.95,7.47,0.01c2.74-1.01,4.51-3.16,5.82-5.63
				c0.38-0.71-1.66-0.73-1.79-0.36c-3.98,5.26-8.02,6.87-12.11,4.84c-1.95-0.7-3.43-2.07-4.44-4.11
				C62.12,60.31,61.33,60.58,61.43,61.02z"/>
			<path class="st2" d="M59.35,63.58c0.37,1.63,1.24,2.36,2.62,3.18c1.61,0.95,3.7,1.88,5.54,2.2c2.43,0.43,4.66-0.24,6.71-1.45
				c2.12-1.25,3.1-2.59,4.15-4.7c0.33-0.68-1.27-0.92-1.54-0.56c-0.69,1.07-1.57,1.95-2.64,2.65c-1.88,1.39-3.88,1.42-6.01,0.09
				c-1.78-0.43-5.88-0.59-5.6-3.52c0.07-0.72-1.32,0.32-1.45,0.41C60.72,62.14,59.21,62.93,59.35,63.58z"/>
			<path class="st2" d="M60.72,60.5c0.48,1.76,1.29,2.68,2.87,3.68c2.4,1.51,5.29,2.71,8.18,2.36c3.85-0.47,6.65-2.99,8.33-6.3
				c0.34-0.67-0.79-0.78-0.96-0.29c-5.9,0.15-11.8,0.31-17.7,0.46C61.3,59.93,60.6,60.06,60.72,60.5z"/>
			<path class="st2" d="M58.8,61.64c0.35,1.59,1.1,2.3,2.56,3.17c1.62,0.96,3.67,2.11,5.51,2.48c1.86,0.37,4.05-0.02,5.77-0.7
				c3.18-1.27,4.49-3,5.85-5.87c0.17-0.36-0.25-0.26-0.38-0.03c-4.39,5.89-8.74,7.41-13.03,4.57c-2-1.04-3.32-2.71-3.96-5.01
				C61.14,59.57,58.64,60.9,58.8,61.64z"/>
		</g>
		<g>
			<path class="st2" d="M61.24,49c-0.02,1.64-0.03,3.29-0.05,4.93c-0.01,0.69,0.97-0.4,0.95-0.37c0.45-0.46,1.44-1.43,1.49-2.13
				c0.09-1.54,0.19-3.08,0.28-4.63C63.95,46.3,61.25,48.23,61.24,49z"/>
			<path class="st2" d="M61.75,47.51c-0.03,1.63-0.06,3.25-0.09,4.88c-0.01,0.59,1.43-0.74,1.45-1.13c0.08-1.61,0.15-3.23,0.23-4.84
				C63.37,45.78,61.76,46.99,61.75,47.51z"/>
			<path class="st2" d="M62.23,48.59c-0.03,1.63-0.05,3.27-0.08,4.9c-0.01,0.55,1.91-1.32,1.95-1.94c0.09-1.54,0.18-3.09,0.26-4.63
				C64.39,46.33,62.24,47.95,62.23,48.59z"/>
			<path class="st2" d="M62.95,49.99c-0.03,1.57-0.06,3.13-0.09,4.7c-0.02,0.99,1.28-0.43,1.3-0.87c0.06-1.61,0.13-3.21,0.19-4.82
				C64.39,48.37,62.96,49.5,62.95,49.99z"/>
			<path class="st2" d="M63.05,48.69c-0.04,1.61-0.07,3.23-0.11,4.84c-0.02,0.88,1.14-0.21,1.16-0.66c0.06-1.54,0.11-3.07,0.17-4.61
				C64.3,47.37,63.06,48.24,63.05,48.69z"/>
			<path class="st2" d="M60.39,47.35c-0.03,1.57-0.06,3.13-0.09,4.7c-0.02,0.93,1.22-0.26,1.23-0.71c0.06-1.6,0.12-3.2,0.17-4.79
				C61.74,45.91,60.4,46.88,60.39,47.35z"/>
			<path class="st2" d="M60.36,48.75c-0.01,1.65-0.03,3.29-0.04,4.94c0,0.5,2.35-1.67,2.39-2.41c0.09-1.55,0.18-3.09,0.27-4.64
				C63.01,46.12,60.36,48,60.36,48.75z"/>
			<path class="st2" d="M61.32,50.48c-0.01,1.65-0.02,3.3-0.03,4.95c0,0.68,0.94-0.4,0.91-0.37c0.44-0.47,1.31-1.39,1.36-2.07
				c0.1-1.54,0.2-3.08,0.29-4.62C63.88,47.85,61.32,49.72,61.32,50.48z"/>
			<path class="st2" d="M62.49,47.52c-0.04,1.65-0.09,3.31-0.13,4.96c-0.01,0.5,0.8,0.36,0.81-0.13c0.05-1.62,0.1-3.24,0.15-4.86
				C63.34,46.97,62.51,47.03,62.49,47.52z"/>
			<path class="st2" d="M60.44,49.99c-0.01,1.66-0.02,3.31-0.02,4.97c0,0.73,1.04-0.5,1-0.46c0.49-0.51,1.57-1.59,1.62-2.36
				c0.11-1.53,0.21-3.07,0.32-4.6c0.05-0.71-1.05,0.33-1.04,0.33C61.89,48.23,60.45,49.34,60.44,49.99z"/>
			<path class="st2" d="M61.71,47.09c0,1.66-0.01,3.32-0.01,4.99c0,0.36,0.7,0.59,0.7,0.1c0-1.66,0.01-3.33,0.01-4.99
				C62.43,46.81,61.72,46.6,61.71,47.09z"/>
			<path class="st2" d="M59.91,48.01c-0.02,1.64-0.05,3.28-0.07,4.92c-0.01,0.58,1.7-1.11,1.73-1.68c0.08-1.54,0.17-3.08,0.25-4.62
				C61.85,46.01,59.91,47.44,59.91,48.01z"/>
		</g>
		<g>
			<g>
				<g>
					<path class="st2" d="M76.13,48.39c-0.01,1.65-0.02,3.3-0.03,4.95c0,0.48,0.68-0.26,0.67-0.25c0.31-0.3,1.05-1,1.07-1.47
						c0.06-1.59,0.11-3.18,0.17-4.77C78.03,46.47,76.14,47.86,76.13,48.39z"/>
					<path class="st2" d="M76.49,47.34c-0.02,1.64-0.04,3.28-0.06,4.93c0,0.43,1.03-0.55,1.04-0.9c0.04-1.6,0.09-3.19,0.13-4.79
						C77.62,46.12,76.49,46.99,76.49,47.34z"/>
					<path class="st2" d="M76.83,48.1c-0.02,1.64-0.03,3.29-0.05,4.93c0,0.4,1.37-0.89,1.39-1.33c0.05-1.59,0.1-3.19,0.16-4.78
						C78.34,46.5,76.83,47.66,76.83,48.1z"/>
					<path class="st2" d="M77.33,49.09c-0.02,1.6-0.03,3.2-0.05,4.8c-0.01,0.7,0.92-0.26,0.93-0.58c0.04-1.64,0.07-3.28,0.11-4.92
						C78.34,47.94,77.34,48.74,77.33,49.09z"/>
					<path class="st2" d="M77.4,48.17c-0.02,1.63-0.04,3.27-0.06,4.9c-0.01,0.62,0.81-0.12,0.82-0.43c0.03-1.59,0.07-3.18,0.1-4.78
						C78.27,47.24,77.4,47.86,77.4,48.17z"/>
					<path class="st2" d="M75.54,47.23c-0.02,1.6-0.03,3.2-0.05,4.8c-0.01,0.65,0.87-0.15,0.88-0.46c0.03-1.63,0.07-3.27,0.1-4.9
						C76.47,46.21,75.54,46.91,75.54,47.23z"/>
					<path class="st2" d="M75.51,48.22c-0.01,1.65-0.02,3.31-0.02,4.96c0,0.36,1.69-1.13,1.71-1.65c0.05-1.59,0.11-3.19,0.16-4.78
						C77.37,46.35,75.51,47.7,75.51,48.22z"/>
					<path class="st2" d="M76.19,49.43c-0.01,1.65-0.01,3.31-0.02,4.96c0,0.35,1.61-1.15,1.62-1.67c0.06-1.59,0.11-3.18,0.17-4.77
						C77.97,47.56,76.19,48.91,76.19,49.43z"/>
					<path class="st2" d="M77.01,47.35c-0.03,1.65-0.06,3.31-0.09,4.96c-0.01,0.35,0.57,0.26,0.57-0.09
						c0.03-1.63,0.06-3.26,0.1-4.89C77.6,46.96,77.02,47,77.01,47.35z"/>
					<path class="st2" d="M75.57,49.09c-0.01,1.66-0.01,3.31-0.02,4.97c0,0.51,0.73-0.33,0.71-0.31c0.33-0.33,1.15-1.11,1.17-1.63
						c0.06-1.59,0.13-3.17,0.19-4.76c0.02-0.49-0.72,0.22-0.73,0.23C76.59,47.85,75.57,48.63,75.57,49.09z"/>
					<path class="st2" d="M76.46,47.05c0,1.66,0,3.32,0,4.98c0,0.26,0.49,0.41,0.5,0.07c0-1.66,0-3.32,0.01-4.99
						C76.96,46.85,76.47,46.71,76.46,47.05z"/>
					<path class="st2" d="M75.19,47.7c-0.01,1.65-0.03,3.3-0.04,4.95c0,0.42,1.23-0.74,1.24-1.14c0.05-1.59,0.1-3.19,0.14-4.78
						C76.55,46.28,75.2,47.3,75.19,47.7z"/>
				</g>
			</g>
		</g>
		<g>
			<path class="st3" d="M103.09,39.29c0.87-1.24,2.04-2.06,3.49-2.48c-0.61,0.13-1.23,0.26-1.84,0.39c1.12-0.15,2.25-0.31,3.37-0.46
				c1.59-0.22,0.15-0.7-0.64-0.77c-1.8-0.15-4.39-0.36-6.11,0.27c-2.53,0.93-3.74,1.75-5.56,3.73c-0.76,0.83,2.09,0.35,1.94,0.37
				c1.19-0.15,2.37-0.33,3.55-0.55C101.92,39.74,102.52,39.57,103.09,39.29z"/>
			<path class="st3" d="M103.66,38.36c1.68-0.82,3.36-1.64,5.03-2.46c1.12-0.21,0.62-0.62-0.09-0.74c-1.57-0.27-4.24,0.2-5.75,0.7
				c-2.68,0.89-4.22,1.81-6.18,3.93c-0.8,0.86,2.23,0.1,1.92,0.17C99.93,39.67,102.64,39.39,103.66,38.36z"/>
			<path class="st3" d="M105.59,39.77c1.16-0.79,2.32-1.58,3.48-2.38c-0.42,0.08-0.85,0.17-1.27,0.25c0.98-0.09,1.97-0.17,2.95-0.26
				c0.88-0.08,0.5-0.5,0.04-0.74c-0.89-0.46-3.24-0.45-4.21-0.23c-2.6,0.59-3.97,1.25-5.91,3.21c-0.64,0.65,1.27,0.59,1.29,0.59
				C102.76,40.21,104.93,40.41,105.59,39.77z"/>
			<path class="st3" d="M105.25,39.02c0.87-1.23,2.04-2.03,3.49-2.42c-0.58,0.13-1.16,0.26-1.73,0.4c1.09-0.13,2.18-0.26,3.27-0.39
				c1.1-0.13,0.69-0.55-0.02-0.74c-0.96-0.05-1.91-0.06-2.87-0.02c-0.96,0.01-1.91,0.07-2.87,0.18c-2.68,0.76-4.16,1.51-6.15,3.57
				c-0.77,0.8,1.99,0.38,1.83,0.4C101.36,39.87,104.34,39.92,105.25,39.02z"/>
			<path class="st3" d="M103.9,38.02c1.52-0.74,3.03-1.48,4.55-2.21c0.36-0.06,1.19-0.11,1.28-0.58c0.09-0.46-0.5-0.46-0.79-0.43
				c-3.1,0.31-5.15,1.06-7.48,3.26C100.46,38.99,103.45,38.44,103.9,38.02z"/>
			<path class="st3" d="M104.31,39.99c1.14-0.79,2.28-1.58,3.43-2.37c-0.36,0.07-0.73,0.15-1.09,0.22c0.93-0.09,1.87-0.17,2.8-0.26
				c0.85-0.08,0.36-0.48,0.07-0.74c-0.53-0.46-2.94-0.47-3.61-0.32c-2.54,0.59-3.85,1.25-5.73,3.19c-0.58,0.59,0.99,0.62,1.07,0.62
				C101.93,40.39,103.76,40.54,104.31,39.99z"/>
			<path class="st3" d="M103.53,39.09c1.57-0.75,3.14-1.51,4.72-2.26c0.54-0.07,1.12-0.2,0.66-0.75c-0.38-0.45-2.27-0.13-2.75-0.04
				c-2.53,0.51-3.92,1.34-5.74,3.14c-0.52,0.52,0.87,0.52,0.89,0.52C101.94,39.71,103.04,39.56,103.53,39.09z"/>
		</g>
		<g>
			<path class="st3" d="M105.59,60.66c3.17,0.03,6.35,0.06,9.52,0.1c1.11,0.01-0.98-1.87-0.96-1.85c-0.89-0.9-1.8-1.78-2.74-2.64
				c-0.46-0.5-0.98-0.9-1.58-1.21c-3.13-0.13-6.26-0.27-9.39-0.4c-1.06-0.05,1.25,2.37,1.45,2.6
				C102.66,58.13,104.26,60.65,105.59,60.66z"/>
			<path class="st3" d="M105.54,59.83c3.28,0.04,6.56,0.08,9.84,0.12c1.08,0.01-1.01-1.63-0.89-1.52c-0.85-0.72-2.7-2.69-3.92-2.74
				c-3.16-0.12-6.33-0.24-9.49-0.36c-1.05-0.04,0.85,1.64,0.77,1.56C102.56,57.57,104.43,59.81,105.54,59.83z"/>
			<path class="st3" d="M107.39,62.21c3.28,0.03,6.57,0.06,9.85,0.09c0.99,0.01-0.71-1.47-0.66-1.43c-0.69-0.65-2.28-2.5-3.34-2.53
				c-3.16-0.11-6.32-0.22-9.49-0.34c-0.96-0.03,0.53,1.46,0.54,1.47C104.85,60.07,106.43,62.2,107.39,62.21z"/>
			<path class="st3" d="M107.09,61.09c3.28,0.03,6.55,0.05,9.83,0.08c1.11,0.01-1.12-1.68-0.97-1.56c-0.91-0.75-2.85-2.77-4.14-2.82
				c-3.15-0.12-6.3-0.25-9.46-0.37c-1.08-0.04,0.94,1.7,0.84,1.61C103.95,58.73,105.93,61.08,107.09,61.09z"/>
			<path class="st3" d="M105.89,60.61c3.18,0.03,6.36,0.06,9.53,0.09c1.29,0.01-0.44-1.71-1.02-1.72c-3.24-0.05-6.47-0.09-9.71-0.14
				C103.84,58.83,105.27,60.61,105.89,60.61z"/>
			<path class="st3" d="M106.15,62.31c3.26,0.02,6.52,0.04,9.79,0.06c0.94,0.01-0.45-1.41-0.49-1.46c-0.54-0.62-2.05-2.74-3-2.77
				c-3.12-0.1-6.24-0.2-9.36-0.3c-0.9-0.03,0.27,1.37,0.35,1.49C103.84,59.89,105.3,62.31,106.15,62.31z"/>
			<path class="st3" d="M105.21,61.41c3.25,0.02,6.49,0.05,9.74,0.07c0.83,0.01-1.48-2.97-2.29-2.99c-3.12-0.08-6.24-0.17-9.36-0.25
				C102.38,58.21,104.44,61.4,105.21,61.41z"/>
		</g>
		<g>
			<path class="st3" d="M95.01,78.21c1.52,1.43,3.24,2.56,5.17,3.39c0.37,0.2-0.11-4.46-0.09-4.3c-0.12-0.92-0.09-3.51-1.02-4.18
				c-1.34-1.14-2.67-2.28-4.01-3.42c-0.22-0.22-0.49,4.38-0.49,4.26C94.56,74.75,94.17,77.54,95.01,78.21z"/>
			<path class="st3" d="M95.04,76.97c2.87,2.34,1.92,1.69,5.08,3.45c0.83,0.46,0.38-1.51,0.36-1.67c-0.12-0.88-0.23-3.91-1.07-4.49
				c-1.56-0.91-2.93-2.04-4.13-3.39c-0.71-0.69-0.61,1.55-0.61,1.57C94.66,73.23,94.32,76.38,95.04,76.97z"/>
			<path class="st3" d="M96.09,79.78c1.53,1.43,3.26,2.57,5.18,3.4c0.81,0.44,0.26-1.41,0.24-1.46c-0.21-0.85-0.54-3.11-1.36-3.65
				c-1.63-0.89-3.07-2.02-4.33-3.39c-0.69-0.64-0.48,1.42-0.48,1.37C95.42,76.83,95.38,79.21,96.09,79.78z"/>
			<path class="st3" d="M96.04,78.41c1.51,1.44,3.23,2.58,5.14,3.43c0.87,0.48,0.17-1.65,0.17-1.66c-0.26-0.97-0.65-3.57-1.57-4.19
				c-1.58-0.9-2.98-2.04-4.19-3.4c-0.74-0.71-0.42,1.69-0.43,1.57C95.25,75.04,95.25,77.78,96.04,78.41z"/>
			<path class="st3" d="M94.28,78.16c1.5,1.43,3.19,2.56,5.09,3.4c0.83,0.46,0.51-2.22-0.02-2.53c-1.67-0.82-3.15-1.9-4.46-3.22
				C94.17,75.18,93.8,77.77,94.28,78.16z"/>
			<path class="st3" d="M94.98,79.9c2.93,2.32,1.93,1.67,5.17,3.38c0.82,0.43,0.41-1.42,0.38-1.62c-0.11-0.83-0.2-3.83-1.01-4.37
				c-1.58-0.88-2.98-2-4.19-3.34c-0.71-0.67-0.64,1.46-0.64,1.53C94.66,76.21,94.27,79.34,94.98,79.9z"/>
			<path class="st3" d="M94,78.89c2.92,2.31,1.87,1.62,5.1,3.34c0.83,0.44,0.7-4.24,0-4.69c-1.58-0.85-2.98-1.93-4.19-3.25
				C94.25,73.68,93.33,78.37,94,78.89z"/>
		</g>
		<g>
			<path class="st3" d="M80.93,26.69c-0.17-1.95,0.05-3.86,0.64-5.72c0.26-1.21-1.98,1.41-1.68,1.06c-0.95,1.11-2.94,2.92-3.22,4.44
				c-0.5,1.85-0.71,3.73-0.62,5.64c-0.04,1.14,1.81-1.19,1.68-1.04c0.77-0.91,1.51-1.84,2.23-2.79
				C80.37,27.81,80.7,27.28,80.93,26.69z"/>
			<path class="st3" d="M81.48,25.41c-0.17-1.96,0.05-3.87,0.65-5.74c0.27-1.25-2.02,1.64-1.69,1.22c-0.99,1.27-2.88,3.18-3.2,4.82
				c-0.51,1.86-0.73,3.76-0.64,5.69c-0.04,1.2,1.87-1.43,1.69-1.2c0.77-1,1.51-2.02,2.22-3.06C80.94,26.61,81.26,26.04,81.48,25.41z
				"/>
			<path class="st3" d="M82.94,26.38c-0.17-1.91,0.06-3.78,0.66-5.6c0.19-0.85-1.26,0.3-1.19,0.24c-0.63,0.49-1.78,1.42-1.96,2.25
				c-0.55,1.74-0.77,3.52-0.68,5.34C79.74,29.45,82.93,27.22,82.94,26.38z"/>
			<path class="st3" d="M82.68,25.94c-0.17-1.94,0.05-3.83,0.66-5.67c0.25-1.11-1.84,0.98-1.62,0.76c-0.88,0.86-2.88,2.4-3.16,3.7
				c-0.53,1.77-0.76,3.58-0.68,5.43c-0.04,1.03,1.63-0.7,1.61-0.68C80.18,28.84,82.66,27,82.68,25.94z"/>
			<path class="st3" d="M81.23,24.38c0.22-1.78,0.44-3.56,0.66-5.34c0.16-0.72-0.26-0.53-0.64-0.37c-0.59,0.24-1.46,2.2-1.6,2.8
				c-0.74,3.35-0.62,2.64-0.78,6.06c-0.04,0.88,1.17-0.64,1.08-0.52C80.45,26.34,81.21,25.25,81.23,24.38z"/>
			<path class="st3" d="M81.81,26.67c-0.17-1.9,0.05-3.75,0.64-5.56c0.18-0.8-1.16,0.29-1.09,0.23c-0.58,0.51-1.41,1.34-1.57,2.12
				c-0.53,1.74-0.74,3.52-0.64,5.34C79.13,29.59,81.8,27.46,81.81,26.67z"/>
			<path class="st3" d="M80.9,25.76c0.21-1.76,0.41-3.51,0.62-5.27c0.15-0.66-0.24-0.5-0.62-0.4c-0.5,0.13-1.45,1.93-1.55,2.42
				c-0.69,3.28-0.58,2.47-0.68,5.81c-0.03,0.79,1.05-0.37,1.03-0.34C80.16,27.44,80.89,26.5,80.9,25.76z"/>
		</g>
		<g>
			<path class="st3" d="M51.22,36.03c1.23,1.24,2.45,2.48,3.68,3.73c0.81,0.82,0.57-2.18,0.57-2.11c-0.03-1.34-0.08-2.67-0.18-4
				c0.01-0.71-0.1-1.4-0.32-2.07c-1.09-1.28-2.19-2.56-3.28-3.84c-0.69-0.81-0.75,2.73-0.77,3.03
				C50.87,31.98,50.25,35.05,51.22,36.03z"/>
			<path class="st3" d="M51.26,34.78c1.28,1.32,2.56,2.64,3.85,3.96c0.73,0.75,0.52-1.74,0.52-1.63c-0.04-1.07,0.15-3.7-0.63-4.59
				c-1.11-1.28-2.22-2.56-3.33-3.83c-0.67-0.77-0.66,1.62-0.66,1.56C50.98,31.13,50.55,34.05,51.26,34.78z"/>
			<path class="st3" d="M52.28,37.59c1.29,1.3,2.59,2.61,3.88,3.91c0.7,0.71,0.36-1.59,0.38-1.42c-0.16-1.04-0.27-2.88-1-3.71
				c-1.13-1.28-2.27-2.57-3.4-3.85c-0.64-0.73-0.5,1.49-0.51,1.36C51.67,34.74,51.59,36.89,52.28,37.59z"/>
			<path class="st3" d="M52.24,36.22c1.29,1.31,2.58,2.62,3.86,3.93c0.75,0.76,0.29-1.85,0.33-1.62c-0.19-1.18-0.32-3.32-1.15-4.27
				c-1.12-1.28-2.23-2.56-3.35-3.84c-0.69-0.79-0.45,1.75-0.47,1.55C51.54,32.96,51.46,35.44,52.24,36.22z"/>
			<path class="st3" d="M50.45,35.96c1.26,1.29,2.52,2.59,3.79,3.88c0.58,0.6,0.73-2.13,0.28-2.61c-1.13-1.21-2.26-2.42-3.38-3.63
				C50.51,32.94,50.01,35.5,50.45,35.96z"/>
			<path class="st3" d="M51.16,37.71c1.29,1.3,2.59,2.6,3.88,3.91c0.72,0.73,0.52-1.68,0.52-1.6c-0.04-1.06,0.14-3.6-0.62-4.48
				c-1.1-1.26-2.2-2.52-3.3-3.79c-0.66-0.76-0.68,1.55-0.67,1.51C50.92,34.12,50.47,37.01,51.16,37.71z"/>
			<path class="st3" d="M50.19,36.71c1.28,1.28,2.56,2.57,3.83,3.85c0.62,0.63,0.66-1.14,0.67-1.22c0.05-0.78,0.39-2.92-0.21-3.59
				c-1.09-1.22-2.18-2.44-3.27-3.67C50.68,31.49,49.53,36.05,50.19,36.71z"/>
		</g>
		<g>
			<path class="st3" d="M38.29,47.55c2.82-0.47,5.48,0.12,7.96,1.76c1.12,0.58-1.39-2.25-0.97-1.82c-1.13-1.15-2.74-3.22-4.32-3.76
				c-3.11-1.07-5.15-1.36-8.42-1.17c-1.12,0.06,1.2,1.77,1.13,1.71c0.96,0.79,1.95,1.55,2.95,2.28
				C37.11,46.98,37.67,47.32,38.29,47.55z"/>
			<path class="st3" d="M38.59,46.75c2.63-0.45,5.1,0.06,7.43,1.54c1.24,0.62,0.57-0.44,0.03-0.95c-1.17-1.12-2.79-2.49-4.33-3.05
				c-2.94-1.06-5.25-1.39-8.44-1.21c-1.1,0.06,1.27,1.54,1.07,1.41C35.34,45.14,37.32,46.8,38.59,46.75z"/>
			<path class="st3" d="M40.57,48.99c2.63-0.45,5.09,0.1,7.38,1.64c0.8,0.43,0.76,0.01,0.48-0.56c-0.47-0.96-2.52-2.58-3.5-3
				c-3.05-1.31-5.18-1.81-8.58-1.71c-1,0.03,0.83,1.43,0.75,1.37C37.84,47.33,39.52,49.02,40.57,48.99z"/>
			<path class="st3" d="M40.22,47.91c2.6-0.45,5.04,0.07,7.32,1.57c0.91,0.47,0.9,0.04,0.45-0.59c-0.69-0.62-1.41-1.2-2.16-1.75
				c-0.73-0.57-1.49-1.1-2.28-1.59c-3.14-1.24-5.39-1.73-8.85-1.58c-1.13,0.05,1.32,1.61,1.11,1.47
				C36.81,46.13,38.91,47.96,40.22,47.91z"/>
			<path class="st3" d="M38.86,47.34c2.63-0.39,5.09,0.18,7.39,1.71c0.41,0.22,0.79,0.26,0.82-0.3c0.03-0.47-1.14-1.08-1.48-1.24
				c-2.73-1.34-4.71-1.8-7.84-1.75C36.53,45.78,38.27,47.35,38.86,47.34z"/>
			<path class="st3" d="M39.28,49.08c2.63-0.45,5.09,0.08,7.4,1.6c0.99,0.52,0.68-0.27,0.24-0.87c-0.75-1.03-2.02-2.58-3.23-3.08
				c-2.96-1.22-4.8-1.56-8-1.43c-0.92,0.04,0.51,1.34,0.55,1.37C36.81,47.24,38.36,49.11,39.28,49.08z"/>
			<path class="st3" d="M38.37,48.2c2.48,0.56,4.95,1.12,7.43,1.68c0.62,0.32,0.57-0.1,0.54-0.51c-0.05-0.55-1.61-1.99-2.11-2.21
				c-2.91-1.28-4.93-1.71-8.2-1.6C35.22,45.59,37.58,48.22,38.37,48.2z"/>
		</g>
		<g>
			<path class="st3" d="M33.62,56.18c-1.93,0.3-2.98,0.37-4.8,1.09c-1.76,0.69-3.43,1.54-5.23,2.14c-1.06,0.35,1.56,1.49,1.55,1.48
				c1.17,0.6,2.34,1.17,3.54,1.71c0.61,0.34,1.25,0.57,1.94,0.68c3.17-0.81,6-1.76,9.38-2.06c1.06-0.09-1.76-2.16-1.99-2.33
				C37.05,58.15,34.98,55.96,33.62,56.18z"/>
			<path class="st3" d="M33.68,55.09c-2,0.32-3.85,0.69-5.72,1.52c-1.53,0.68-2.98,1.32-4.57,1.86c-0.38,0.13,3.29,2.6,3.16,2.52
				c0.78,0.49,2.57,2,3.66,1.72c3.2-0.83,6.06-1.78,9.38-2.09c0.37-0.03-2.74-3.21-2.63-3.11C36.38,56.97,34.71,54.92,33.68,55.09z"
				/>
			<path class="st3" d="M34.11,55.94c-3.73,0.62-6.83,2.18-10.36,3.39c-0.8,0.27,1.58,1.61,2.21,1.41c3.35-1.09,6.28-2.37,9.79-2.92
				C36.63,57.67,34.74,55.83,34.11,55.94z"/>
			<path class="st3" d="M34.76,55.72c-3.77,0.6-6.65,2.09-10.23,3.29c-0.81,0.27,0.6,1.08,0.71,1.15c0.57,0.4,2.35,1.71,3.13,1.48
				c3.23-0.93,6.08-2.01,9.45-2.41C38.65,59.14,35.65,55.58,34.76,55.72z"/>
			<path class="st3" d="M32.39,54.09c-2.09,0.34-3.03,0.44-4.95,1.17c-1.85,0.71-3.54,1.62-5.42,2.26
				c-0.85,0.29,0.72,1.15,0.83,1.21c0.65,0.41,2.61,1.91,3.46,1.66c3.33-0.98,6.25-2.13,9.73-2.56c0.89-0.11-0.48-1.28-0.57-1.37
				C34.97,55.99,33.21,53.96,32.39,54.09z"/>
			<path class="st3" d="M33.34,56.4c-3.72,0.62-6.79,2.18-10.3,3.38c-0.8,0.27,0.75,0.96,0.75,0.96c0.68,0.33,2.1,0.99,2.89,0.75
				c3.3-1.02,6.18-2.22,9.63-2.7c0.8-0.11-0.42-1.05-0.46-1.08C35.33,57.3,34.06,56.28,33.34,56.4z"/>
			<path class="st3" d="M32.3,55.53c-3.74,0.61-6.83,2.19-10.36,3.4c-0.92,0.32,1.09,1.15,1.06,1.14c0.85,0.39,2.9,1.62,3.9,1.32
				c3.29-0.97,6.17-2.12,9.6-2.55c0.95-0.12-0.79-1.32-0.76-1.3C35.07,57.04,33.24,55.37,32.3,55.53z"/>
		</g>
		<g>
			<path class="st3" d="M39.61,75.65c-1.72,2.92-3.94,5.39-6.65,7.42c-0.96,0.88,2.69-0.04,2.21,0.08c1.32-0.33,2.62-0.69,3.92-1.08
				c0.71-0.15,1.37-0.41,1.98-0.78c2.63-2.12,4.83-4.62,6.61-7.49c0.72-0.97-2.41-0.01-2.21-0.06c-1.31,0.34-2.61,0.71-3.9,1.11
				C40.87,75.01,40.22,75.27,39.61,75.65z"/>
			<path class="st3" d="M39.96,74.76c-1.73,2.91-3.95,5.38-6.67,7.4c-0.86,0.78,2.15,0.32,1.85,0.36c1.22-0.16,4.09-0.17,5.06-1.09
				c2.62-2.08,4.8-4.55,6.56-7.4c0.63-0.84-1.84-0.36-1.83-0.36C43.96,73.8,40.61,73.86,39.96,74.76z"/>
			<path class="st3" d="M39.79,76.58c-1.69,2.8-3.85,5.16-6.48,7.1c-0.46,0.42-0.05,0.56,0.29,0.68c0.47,0.17,2.06-0.7,2.41-1.02
				c2.69-2.05,4.92-4.5,6.71-7.37C43.61,74.79,40.25,75.96,39.79,76.58z"/>
			<path class="st3" d="M40.45,75.61c-1.7,2.89-3.89,5.33-6.58,7.33c-0.71,0.65,1.56,0.23,1.31,0.28c0.97-0.2,2.43-0.53,3.18-1.24
				c2.61-2.05,4.78-4.49,6.52-7.32c0.54-0.73-1.37-0.27-1.29-0.29C42.78,74.54,40.98,74.88,40.45,75.61z"/>
			<path class="st3" d="M38.01,74.67c-1.71,2.9-3.91,5.34-6.62,7.33c-0.67,0.61,1.3,0.49,1.2,0.5c0.83-0.03,2.53-0.08,3.19-0.69
				c2.62-2.01,4.8-4.42,6.53-7.22c0.5-0.66-1.05-0.53-1.16-0.52C40.52,74.06,38.46,74.06,38.01,74.67z"/>
			<path class="st3" d="M38.93,76.79c-2.19,2.45-4.39,4.9-6.58,7.35c-0.75,0.68,1.75,0.04,1.43,0.14c1.11-0.37,2.52-0.78,3.39-1.6
				c2.64-2.07,4.85-4.53,6.61-7.38c0.59-0.8-1.63-0.07-1.44-0.13C41.39,75.49,39.56,75.93,38.93,76.79z"/>
			<path class="st3" d="M37.86,75.91c-1.71,2.9-3.91,5.36-6.61,7.36c-0.82,0.74,1.96,0.18,1.63,0.25c1.18-0.25,3.27-0.48,4.21-1.35
				c2.63-2.04,4.83-4.48,6.58-7.32c0.61-0.82-1.72-0.24-1.62-0.26C41.11,74.78,38.5,75.04,37.86,75.91z"/>
		</g>
		<g>
			<path class="st3" d="M65.21,82.5c-0.12,3,0.43,4.4,1.96,7.01c0.29,0.5,3.28-3.02,3.22-2.95c0.37-0.42,2.87-2.67,2.52-3.57
				c-0.9-1.61-0.99-3.33-0.28-5.16c0.06-0.27-4.06,2-3.96,1.94C68.06,80.16,65.25,81.45,65.21,82.5z"/>
			<path class="st3" d="M65.63,81.53c-0.14,2.97,0.4,4.33,1.91,6.92c0.11,0.19,5.17-3.67,4.68-4.86c-0.95-1.61-1.1-3.36-0.43-5.23
				c0.1-0.45-3.43,1.24-3.29,1.17C67.94,79.81,65.67,80.63,65.63,81.53z"/>
			<path class="st3" d="M65.63,83.41c-0.14,3.02,0.47,4.56,1.91,7.09c0.49,0.86,2.45-2.57,2.13-3.21c-1.13-2.26-1.37-3.39-1.06-5.88
				c0.1-0.77-1.05,0.05-1.12,0.09C67.01,81.81,65.66,82.74,65.63,83.41z"/>
			<path class="st3" d="M66.17,82.26c-0.16,2.98,0.44,4.6,1.93,7.17c0.24,0.42,1.33-1.29,1.43-1.43c0.31-0.47,1.67-2.08,1.39-2.7
				c-1.1-1.78-1.34-3.6-0.73-5.47c0.15-0.87-1.31,0.15-1.35,0.18C68.3,80.32,66.21,81.5,66.17,82.26z"/>
			<path class="st3" d="M63.87,81.5c-0.18,3.03,0.33,4.59,1.93,7.32c0.28,0.48,2.76-1.9,2.55-2.42c-0.25-2-0.5-4.01-0.75-6.01
				C67.76,79.38,63.91,80.83,63.87,81.5z"/>
			<path class="st3" d="M64.72,83.58c-0.14,3.02,0.43,4.64,2.02,7.34c0.29,0.5,2.04-2.28,2-2.2c0.37-0.57,1.56-1.92,1.21-2.71
				c-0.23-1.8-0.45-3.6-0.68-5.41c0.16-0.94-1.49,0.32-1.5,0.32C67.18,81.34,64.76,82.72,64.72,83.58z"/>
			<path class="st3" d="M63.64,82.96c-0.1,3.04,0.47,4.42,2.08,7.04c0.15,0.24,4.34-3.32,3.87-4.42c-0.99-1.64-1.21-3.42-0.65-5.35
				c0.18-0.98-2,0.36-2.24,0.49C65.99,81.09,63.68,81.96,63.64,82.96z"/>
		</g>
		<g>
			<path class="st0" d="M67.63,26.72c-2.88,0-6.25-0.93-8.69-3.61c-2.91-3.2-3.57-7.8-2-11.68c0.87-2.14,3.13-5.4,6.57-6.41
				c3.29-0.97,7.44-0.52,8.95,0.76c2.45,2.08,3.87,3.51,5.36,7.16c0.44,1.09,0.91,2.28-0.25,2.51c-1.17,0.23-2.28-0.52-2.51-1.68
				c-0.71-3.54-2.21-5.9-4.47-7.01c-2.47-1.21-5.33-0.65-7.03,0.19c-2.03,1.01-3.38,2.87-3.83,5.25c-0.53,2.81,0.36,5.81,2.38,8.02
				c2.71,2.97,7.32,2.27,8.14,1.75c0.99-0.63,2.32-0.35,2.96,0.63c0.64,0.98,0.38,2.29-0.6,2.93
				C71.58,26.22,69.74,26.72,67.63,26.72z"/>
		</g>
		<g>
			<path class="st0" d="M93.2,26.51c-2.88,0-6.25-0.93-8.69-3.61c-2.91-3.2-3.57-7.8-2-11.68c0.87-2.14,3.13-5.4,6.57-6.41
				c3.29-0.97,7.44-0.52,8.95,0.76c2.45,2.08,3.87,3.51,5.36,7.16c0.44,1.09,0.91,2.28-0.25,2.51c-1.17,0.23-2.28-0.52-2.51-1.68
				c-0.71-3.54-2.21-5.9-4.47-7.01c-2.47-1.21-5.33-0.65-7.03,0.19c-2.03,1.01-3.38,2.87-3.83,5.25c-0.53,2.81,0.36,5.81,2.38,8.02
				c2.71,2.97,7.32,2.27,8.14,1.75c0.99-0.63,2.32-0.35,2.96,0.63c0.64,0.98,0.38,2.29-0.6,2.93C97.15,26.01,95.3,26.51,93.2,26.51z
				"/>
		</g>
		<g>
			<path class="st0" d="M119,26.93c-2.88,0-6.25-0.93-8.69-3.61c-2.91-3.2-3.57-7.8-2-11.68c0.87-2.14,3.13-5.4,6.57-6.41
				c3.29-0.97,7.44-0.52,8.95,0.76c2.45,2.08,3.87,3.51,5.36,7.16c0.44,1.09,0.91,2.28-0.25,2.51c-1.17,0.23-2.28-0.52-2.51-1.68
				c-0.71-3.54-2.21-5.9-4.47-7.01c-2.47-1.21-5.33-0.65-7.03,0.19c-2.03,1.01-3.38,2.87-3.83,5.25c-0.53,2.81,0.36,5.81,2.38,8.02
				c2.71,2.97,7.32,2.27,8.14,1.75c0.99-0.63,2.32-0.35,2.96,0.63c0.64,0.98,0.38,2.29-0.6,2.93C122.95,26.44,121.1,26.93,119,26.93
				z"/>
		</g>
	</g>
</g>
</svg>
